<svg xmlns="http://www.w3.org/2000/svg" x="0px" y="0px"
width="50" height="50"
viewBox="0 0 172 172"
style=" fill:#000000;"><g fill="none" fill-rule="nonzero" stroke="none" stroke-width="1" stroke-linecap="butt" stroke-linejoin="miter" stroke-miterlimit="10" stroke-dasharray="" stroke-dashoffset="0" font-family="none" font-weight="none" font-size="none" text-anchor="none" style="mix-blend-mode: normal"><path d="M0,172v-172h172v172z" fill="none"></path><g><circle cx="13" cy="29" transform="scale(1.72,1.72)" r="2" fill="#78a0cf"></circle><circle cx="77" cy="13" transform="scale(1.72,1.72)" r="1" fill="#f1bc19"></circle><circle cx="50" cy="50" transform="scale(1.72,1.72)" r="37" fill="#cee1f4"></circle><circle cx="83" cy="15" transform="scale(1.72,1.72)" r="4" fill="#f1bc19"></circle><circle cx="87" cy="24" transform="scale(1.72,1.72)" r="2" fill="#78a0cf"></circle><circle cx="81" cy="76" transform="scale(1.72,1.72)" r="2" fill="#fbcd59"></circle><circle cx="15" cy="63" transform="scale(1.72,1.72)" r="4" fill="#fbcd59"></circle><circle cx="25" cy="87" transform="scale(1.72,1.72)" r="2" fill="#78a0cf"></circle><circle cx="20.5" cy="41.5" transform="scale(1.72,1.72)" r="2.5" fill="#ffffff"></circle><circle cx="21" cy="67" transform="scale(1.72,1.72)" r="1" fill="#f1bc19"></circle><circle cx="80" cy="34" transform="scale(1.72,1.72)" r="1" fill="#ffffff"></circle><path d="M109.12196,125.62708c-8.84424,0 -16.99532,-4.2656 -21.80616,-11.41048c-0.13416,-0.19952 -0.25628,-0.4042 -0.38012,-0.60716l-1.20916,-1.96424l-1.20916,1.96424c-0.12384,0.20296 -0.24596,0.40764 -0.38012,0.60888c-4.80912,7.14488 -12.9602,11.41048 -21.80444,11.41048c-2.279,-0.00172 -4.28968,-1.35536 -5.1428,-3.45032c-3.3368,-8.19924 -2.45444,-17.36168 2.35812,-24.51172c0.30616,-0.4558 0.63124,-0.88924 0.96148,-1.31752l1.16788,-1.5222l-1.87824,-0.39044c-0.54696,-0.11352 -0.93052,-0.19264 -1.31236,-0.2924c-8.33684,-2.18784 -15.05,-8.48648 -17.96196,-16.84568c-0.74476,-2.13452 -0.129,-4.4806 1.56864,-5.97528c4.89684,-4.31548 11.0854,-6.6908 17.42532,-6.6908c2.18268,0 4.3688,0.2838 6.49644,0.8428c1.26076,0.33196 2.51464,0.76712 3.7238,1.29344l1.94876,0.84796l-0.27348,-2.10872c-0.15824,-1.21776 -0.23392,-2.41488 -0.22188,-3.55868c0.07912,-8.62064 4.53908,-16.67368 11.93164,-21.543c0.90472,-0.59684 1.95736,-0.9116 3.04612,-0.9116c1.12488,0 2.20848,0.3354 3.1304,0.96836c7.3014,5.0052 11.61172,13.13908 11.5326,21.758c-0.0086,0.9374 -0.08256,1.93844 -0.22876,3.05988l-0.26488,2.05196l1.91436,-0.7826c1.1094,-0.45236 2.15,-0.80496 3.18372,-1.07672c2.12764,-0.559 4.31376,-0.8428 6.49472,-0.8428c6.33992,0 12.52848,2.37704 17.42532,6.6908c1.69764,1.49468 2.3134,3.84076 1.56864,5.97528c-2.91024,8.3592 -9.62512,14.65784 -17.96196,16.84568c-0.38184,0.09976 -0.76368,0.17888 -1.14724,0.258l-1.87996,0.38872l1.00448,1.55832c0.32852,0.42828 0.6536,0.86344 0.95976,1.31752c4.81428,7.15004 5.69664,16.3142 2.35984,24.51344c-0.85312,2.09496 -2.8638,3.4486 -5.12388,3.45032h-0.01548z" fill="#f4989e"></path><path d="M86.17028,40.69692v0c0.88064,0 1.7286,0.26144 2.44928,0.7568c6.96944,4.77816 11.0854,12.53708 11.00972,20.75524c-0.0086,0.88924 -0.07912,1.84212 -0.21844,2.91712l-0.52976,4.10392l3.83044,-1.56692c1.05952,-0.43344 2.05196,-0.76884 3.03236,-1.02684c2.02788,-0.5332 4.1108,-0.80324 6.19028,-0.80324c6.0458,0 11.95228,2.26868 16.63068,6.3898c1.32784,1.1696 1.80944,3.00656 1.22808,4.67668c-2.7778,7.9808 -9.18308,13.99048 -17.1312,16.07856c-0.37668,0.09976 -0.75508,0.17544 -1.13348,0.25284l-0.1118,0.02236l-3.7668,0.774l2.34092,3.05128c0.31476,0.40936 0.62608,0.82388 0.91676,1.25732c4.58896,6.81636 5.42832,15.55912 2.24288,23.38684c-0.66736,1.63916 -2.24116,2.69868 -4.02996,2.7004c-8.44176,0 -16.21788,-4.06608 -20.8034,-10.879c-0.12556,-0.18576 -0.23908,-0.37668 -0.35432,-0.5676l-0.18232,-0.301l-2.05024,-3.33336l-2.05024,3.33336l-0.18232,0.301c-0.11524,0.1892 -0.22876,0.38012 -0.35432,0.5676c-4.58552,6.8112 -12.36336,10.879 -20.82404,10.879c-1.76816,0 -3.34368,-1.06124 -4.00932,-2.7004c-3.18544,-7.826 -2.3478,-16.56876 2.24116,-23.38512c0.2924,-0.43344 0.60372,-0.84796 0.91848,-1.25732l2.34092,-3.05128l-3.7668,-0.774l-0.1118,-0.02236c-0.3784,-0.0774 -0.75508,-0.15308 -1.13348,-0.25284c-7.94812,-2.08636 -14.3534,-8.09776 -17.1312,-16.07856c-0.58136,-1.67012 -0.09976,-3.50708 1.22808,-4.67496c4.6784,-4.12112 10.58488,-6.3898 16.63068,-6.3898c2.07948,0 4.1624,0.27004 6.19028,0.80324c1.19884,0.31476 2.39252,0.72928 3.55008,1.23324l3.89924,1.69764l-0.54868,-4.21572c-0.15136,-1.161 -0.2236,-2.30308 -0.21328,-3.39356c0.07568,-8.21816 4.33268,-15.89968 11.38984,-20.54884c0.70176,-0.46784 1.52564,-0.71552 2.37704,-0.71552M86.17028,38.28892c-1.29172,0 -2.58516,0.3698 -3.70832,1.11112c-7.45104,4.90888 -12.38572,13.14252 -12.47172,22.53716c-0.01204,1.26248 0.07396,2.50604 0.2322,3.72552c-1.24528,-0.5418 -2.5456,-0.99932 -3.89924,-1.35536c-2.2704,-0.59684 -4.55284,-0.88236 -6.80088,-0.88236c-6.74756,0 -13.19928,2.56624 -18.22168,6.99008c-2.05196,1.80772 -2.80876,4.69216 -1.9092,7.27388c2.93432,8.428 9.70596,15.22888 18.79444,17.61452c0.45752,0.1204 0.91504,0.21156 1.37256,0.30616c-0.344,0.44892 -0.68456,0.903 -1.00448,1.37944c-5.246,7.79332 -5.8394,17.37372 -2.47508,25.63832c1.03028,2.53356 3.50364,4.19852 6.23844,4.20024c0.00688,0 0.01376,0 0.02236,0c8.91648,0 17.55948,-4.1538 22.80204,-11.94196c0.20984,-0.31304 0.3956,-0.63468 0.58996,-0.95116c0.19608,0.3182 0.38012,0.63984 0.58996,0.95116c5.24256,7.78644 13.88556,11.94196 22.80204,11.94196c0.00688,0 0.01376,0 0.02236,0c2.7348,-0.00172 5.20816,-1.66668 6.23844,-4.20024c3.36432,-8.2646 2.77092,-17.845 -2.47508,-25.63832c-0.31992,-0.47472 -0.66048,-0.93052 -1.00448,-1.37944c0.45752,-0.0946 0.91504,-0.18576 1.37256,-0.30616c9.08676,-2.38564 15.86012,-9.18652 18.79444,-17.61452c0.89956,-2.58172 0.14104,-5.46616 -1.91092,-7.27388c-5.0224,-4.42384 -11.47584,-6.99008 -18.22168,-6.99008c-2.24804,0 -4.53048,0.28552 -6.80088,0.88236c-1.1524,0.30272 -2.25836,0.688 -3.33336,1.1266c0.13588,-1.05264 0.22876,-2.11732 0.23908,-3.20436c0.086,-9.39464 -4.6956,-17.716 -12.05548,-22.76248c-1.15068,-0.78432 -2.48368,-1.1782 -3.8184,-1.1782z" fill="#472b29"></path><path d="M100.448,87.32612c5.17548,-1.3588 9.10052,-4.57004 10.45072,-8.07884c-2.90164,-2.39424 -7.89824,-3.26112 -13.072,-1.90232c-1.30548,0.34228 -2.52496,0.80668 -3.6464,1.36224c-0.81356,0.40248 -1.77676,0.28208 -2.5026,-0.26316c-0.0086,-0.00688 -0.0172,-0.01204 -0.0258,-0.01892c-0.75336,-0.56244 -1.13864,-1.49124 -0.95288,-2.41316c0.23048,-1.1438 0.36464,-2.34952 0.37668,-3.60168c0.04988,-5.35092 -2.01584,-9.98116 -5.0482,-12.20856c-3.07192,2.17064 -5.22192,6.76304 -5.2718,12.11224c-0.01204,1.34332 0.11352,2.63848 0.3526,3.86312c0.17372,0.89096 -0.1892,1.79224 -0.903,2.35124c-0.0086,0.00688 -0.0172,0.01376 -0.0258,0.01892c-0.76712,0.60544 -1.7974,0.71896 -2.66772,0.27348c-1.1868,-0.60716 -2.48884,-1.11112 -3.88548,-1.4792c-5.17548,-1.3588 -10.17036,-0.4902 -13.072,1.90232c1.35192,3.51052 5.27696,6.72004 10.45072,8.07884c1.55832,0.40936 3.09944,0.61404 4.57176,0.6364c0.65876,0.01032 1.2384,0.40764 1.44996,1.032c0.00172,0.00688 0.00516,0.01376 0.00688,0.02064c0.20468,0.59512 0.0086,1.2384 -0.46268,1.65464c-1.15584,1.01996 -2.23944,2.23944 -3.18716,3.6464c-2.98764,4.43932 -3.81496,9.44108 -2.5112,12.97052c3.75992,-0.11868 8.084,-2.76748 11.07164,-7.2068c0.75164,-1.118 1.3588,-2.2704 1.83352,-3.42624c0.32336,-0.7912 1.12144,-1.27968 1.97628,-1.26076c0.01204,0 0.02408,0 0.03612,0c0.82044,0.0172 1.5738,0.49708 1.8834,1.2556c0.473,1.15756 1.08016,2.31168 1.8318,3.42968c2.98764,4.43932 7.31172,7.08812 11.07164,7.2068c1.30376,-3.52772 0.47816,-8.5312 -2.5112,-12.97052c-0.8084,-1.20056 -1.71656,-2.26352 -2.6832,-3.18372c-0.52804,-0.50224 -0.73616,-1.247 -0.48676,-1.93156c0.0172,-0.04472 0.03268,-0.09116 0.04816,-0.1376c0.2322,-0.6708 0.86172,-1.09908 1.57036,-1.13348c1.27968,-0.05676 2.59892,-0.2494 3.93364,-0.59856z" fill="#f5e690"></path><path d="M90.91576,86.72584c1.8232,-0.47816 3.2078,-1.60992 3.68424,-2.84832c-1.0234,-0.8428 -2.78296,-1.14896 -4.60788,-0.6708c-0.45924,0.1204 -0.88924,0.2838 -1.28484,0.47988c-0.28724,0.14104 -0.62608,0.09976 -0.88236,-0.09288c-0.00344,-0.00172 -0.00516,-0.00516 -0.0086,-0.00688c-0.2666,-0.1978 -0.40076,-0.52632 -0.3354,-0.8514c0.08084,-0.40248 0.129,-0.82732 0.13244,-1.26936c0.0172,-1.88512 -0.71036,-3.5174 -1.77848,-4.30344c-1.0836,0.7654 -1.8404,2.38392 -1.8576,4.26904c-0.00516,0.473 0.03956,0.93052 0.12384,1.36224c0.06192,0.31304 -0.06708,0.63124 -0.3182,0.82904c-0.00344,0.00172 -0.00516,0.00516 -0.0086,0.00688c-0.27004,0.21328 -0.63296,0.25284 -0.94084,0.09632c-0.41796,-0.21328 -0.8772,-0.39216 -1.36912,-0.52116c-1.8232,-0.47816 -3.58448,-0.17372 -4.60788,0.6708c0.47644,1.23668 1.85932,2.36844 3.68424,2.84832c0.54868,0.14448 1.0922,0.21672 1.61164,0.22532c0.2322,0.00344 0.43688,0.14276 0.51084,0.36292c0,0.00172 0.00172,0.00516 0.00172,0.00688c0.07224,0.20984 0.00344,0.43688 -0.1634,0.58308c-0.40764,0.35948 -0.78948,0.78948 -1.12316,1.28484c-1.05264,1.5652 -1.34504,3.3282 -0.88408,4.57176c1.3244,-0.04128 2.84832,-0.97524 3.90268,-2.54044c0.26488,-0.39388 0.47988,-0.7998 0.64672,-1.20744c0.11352,-0.27864 0.3956,-0.45064 0.6966,-0.44376c0.00516,0 0.0086,0 0.01376,0c0.28896,0.00688 0.55384,0.17544 0.66392,0.44204c0.16684,0.40764 0.38012,0.81528 0.645,1.20916c1.05264,1.5652 2.57656,2.49744 3.90268,2.54044c0.45924,-1.24356 0.16856,-3.00656 -0.88408,-4.57176c-0.28552,-0.42312 -0.60544,-0.79808 -0.946,-1.12316c-0.18576,-0.17716 -0.25972,-0.44032 -0.172,-0.68112c0.00516,-0.01548 0.01204,-0.03268 0.0172,-0.04816c0.08256,-0.23564 0.30272,-0.387 0.55384,-0.39904c0.44548,-0.01892 0.9116,-0.08772 1.38116,-0.20984z" fill="#f1bc19"></path><path d="M83.22736,84.2542c-0.20124,0 -0.40248,-0.04816 -0.58996,-0.14448c-0.4042,-0.2064 -0.83592,-0.3698 -1.28312,-0.48676c-0.19608,-0.0516 -0.39216,-0.09288 -0.5848,-0.12556c-0.23392,-0.03956 -0.39216,-0.26144 -0.3526,-0.49536c0.03956,-0.23392 0.27004,-0.38528 0.49536,-0.3526c0.21844,0.03612 0.4386,0.08428 0.66048,0.14276c0.5074,0.13244 0.9976,0.31992 1.45684,0.55384c0.15652,0.08084 0.33884,0.0602 0.47816,-0.0516c0.13932,-0.10836 0.20124,-0.26488 0.172,-0.41624c-0.09288,-0.46784 -0.1376,-0.95632 -0.13244,-1.44824c0.0172,-1.97112 0.79808,-3.73928 2.03992,-4.61648c0.15308,-0.10664 0.35432,-0.10492 0.50224,0.00516c0.76024,0.559 1.3588,1.48608 1.68388,2.61268c0.06536,0.22876 -0.06536,0.46612 -0.29412,0.5332c-0.22876,0.06536 -0.46612,-0.06536 -0.5332,-0.29412c-0.23392,-0.81184 -0.62608,-1.49124 -1.11628,-1.95048c-0.86,0.774 -1.40868,2.19128 -1.42244,3.71864c-0.00344,0.43344 0.03612,0.86344 0.11524,1.27452c0.09288,0.46956 -0.08944,0.94772 -0.47472,1.25044c-0.24596,0.19264 -0.5332,0.29068 -0.82044,0.29068z" fill="#472b29"></path><path d="M92.88,86.29068c-0.13932,0 -0.27692,-0.0688 -0.35948,-0.19436c-0.13072,-0.1978 -0.07568,-0.4644 0.12212,-0.59512c0.63812,-0.41968 1.13176,-0.9374 1.42072,-1.48436c-0.9718,-0.62608 -2.48368,-0.78432 -3.96288,-0.3956c-0.41796,0.10836 -0.82216,0.26144 -1.204,0.44892c-0.43172,0.21156 -0.94084,0.15996 -1.33128,-0.13416c-0.41452,-0.3096 -0.60544,-0.7998 -0.5074,-1.28656c0.07912,-0.39044 0.1204,-0.78948 0.12384,-1.18852c0.00172,-0.23564 0.19436,-0.42656 0.43,-0.42656c0,0 0.00172,0 0.00344,0c0.23736,0.00172 0.42828,0.19608 0.42656,0.43344c-0.00344,0.45236 -0.04988,0.90816 -0.14104,1.35192c-0.03268,0.15652 0.0344,0.3182 0.17028,0.4214c0.14276,0.10664 0.30616,0.12556 0.44376,0.05848c0.43344,-0.215 0.8944,-0.387 1.3674,-0.51084c1.9092,-0.50052 3.8184,-0.21156 4.98972,0.75508c0.14276,0.11696 0.19436,0.31304 0.12728,0.48676c-0.31476,0.81872 -0.98384,1.59616 -1.88512,2.18784c-0.07052,0.04988 -0.15308,0.07224 -0.23392,0.07224z" fill="#472b29"></path><path d="M90.07812,89.61888c-0.1376,0 -0.27348,-0.06708 -0.35604,-0.1892c-0.25972,-0.38528 -0.559,-0.7396 -0.88752,-1.05092c-0.31304,-0.29928 -0.42312,-0.74648 -0.27864,-1.14036c0.15308,-0.4386 0.52116,-0.70864 0.95288,-0.72928c0.43688,-0.02064 0.87204,-0.08772 1.29688,-0.19952c0.2322,-0.06192 0.4644,0.0774 0.5246,0.30616c0.0602,0.22876 -0.07568,0.4644 -0.30616,0.5246c-0.48332,0.12728 -0.97868,0.20296 -1.47404,0.22704c-0.07912,0.00344 -0.14448,0.04816 -0.16684,0.1118c-0.0516,0.14276 -0.00688,0.22704 0.04472,0.27692c0.37152,0.35432 0.71036,0.75508 1.00448,1.19368c0.13416,0.1978 0.08084,0.4644 -0.11524,0.59684c-0.07224,0.04816 -0.15652,0.07224 -0.23908,0.07224z" fill="#472b29"></path><path d="M90.9622,94.19064c-0.00344,0 -0.0086,0 -0.01376,0c-1.51704,-0.04816 -3.14416,-1.09392 -4.24496,-2.72964c-0.27176,-0.4042 -0.50224,-0.83592 -0.68628,-1.28656c-0.043,-0.1032 -0.15136,-0.17372 -0.2752,-0.17544c-0.17028,0.00172 -0.25628,0.0688 -0.301,0.17716c-0.18404,0.4472 -0.41452,0.87892 -0.688,1.28484c-1.1008,1.63572 -2.72792,2.68148 -4.24496,2.72964c-0.19952,-0.01376 -0.35432,-0.10836 -0.41624,-0.28036c-0.52632,-1.42416 -0.17028,-3.32476 0.93052,-4.96048c0.344,-0.51084 0.74648,-0.97008 1.1954,-1.3674c0.03096,-0.02752 0.05848,-0.07396 0.04128,-0.12212c-0.00172,-0.00688 -0.00344,-0.01204 -0.00516,-0.01892c-0.02408,-0.05504 -0.08772,-0.06192 -0.10664,-0.06192c-0.57104,-0.0086 -1.14724,-0.08944 -1.71484,-0.23908c-1.90576,-0.50052 -3.42968,-1.69076 -3.97664,-3.10804c-0.06708,-0.172 -0.01548,-0.36808 0.12728,-0.48676c0.47472,-0.39044 1.09564,-0.68284 1.79568,-0.84452c0.2322,-0.05332 0.46268,0.09116 0.516,0.32164c0.05332,0.2322 -0.09116,0.46268 -0.32336,0.516c-0.44548,0.1032 -0.84796,0.2666 -1.17992,0.47988c0.54008,1.02168 1.77848,1.90232 3.25768,2.29104c0.50052,0.13072 1.00792,0.20296 1.50844,0.20984c0.4214,0.00688 0.77916,0.26316 0.9116,0.65532c0.00172,0.0086 0.00516,0.0172 0.00688,0.0258c0.11696,0.36464 0.00344,0.7654 -0.29068,1.02512c-0.39388,0.34916 -0.74992,0.75336 -1.05092,1.204c-0.85312,1.26936 -1.20228,2.74684 -0.93224,3.87172c1.14208,-0.172 2.3822,-1.05264 3.23532,-2.32028c0.2408,-0.35776 0.44376,-0.73788 0.60544,-1.13004c0.17544,-0.42828 0.60716,-0.71208 1.07672,-0.71208c0.0086,0 0.0172,0 0.0258,0c0.47816,0.01032 0.89268,0.28896 1.06468,0.70864c0.1634,0.3956 0.36636,0.77744 0.60544,1.13176c0.85312,1.26936 2.09324,2.14828 3.23532,2.32028c0.06364,-0.26144 0.09288,-0.54524 0.08944,-0.84624c-0.00344,-0.31648 -0.04472,-0.64844 -0.1204,-0.98556c-0.05332,-0.2322 0.09288,-0.46268 0.32336,-0.51428c0.23392,-0.05332 0.46268,0.09288 0.51428,0.32508c0.08944,0.3956 0.1376,0.78776 0.14276,1.16444c0.00516,0.53148 -0.07396,1.0234 -0.23736,1.46544c-0.0602,0.17028 -0.22016,0.28208 -0.40076,0.28208z" fill="#472b29"></path><path d="M78.6298,79.9542c-0.51428,0 -1.02856,-0.12212 -1.50844,-0.36808c-0.68972,-0.3526 -1.41556,-0.66736 -2.16032,-0.93224c-0.4472,-0.15996 -0.68112,-0.65188 -0.52116,-1.09908c0.15824,-0.4472 0.65188,-0.68112 1.09908,-0.52116c0.81528,0.29068 1.61164,0.63468 2.36672,1.02168c0.56588,0.29068 1.23496,0.21844 1.74236,-0.18232c0.50224,-0.39216 0.72756,-0.9718 0.61748,-1.5308c-0.25628,-1.31752 -0.38184,-2.6746 -0.36808,-4.03684c0.02236,-2.38908 0.45752,-4.74892 1.25904,-6.82496c0.172,-0.44376 0.6708,-0.6622 1.11112,-0.49192c0.44204,0.172 0.66392,0.66908 0.49192,1.11284c-0.72756,1.88512 -1.12316,4.03512 -1.1438,6.22124c-0.01204,1.24528 0.10148,2.48712 0.33712,3.69112c0.23392,1.19884 -0.2322,2.42176 -1.21776,3.19404c-0.6278,0.49364 -1.36568,0.74648 -2.10528,0.74648z" fill="#472b29"></path><g fill="#472b29"><path d="M93.15348,79.80456c-0.69832,0 -1.39836,-0.22876 -1.99176,-0.67596c-1.06468,-0.79464 -1.55488,-2.04852 -1.30376,-3.29036c0.22704,-1.12488 0.34744,-2.28072 0.35776,-3.44c0.043,-4.5752 -1.58928,-8.84596 -4.1968,-11.10776c-0.75508,0.62952 -1.44136,1.4276 -2.04508,2.37876c-0.25456,0.40076 -0.78776,0.51944 -1.1868,0.26488c-0.40076,-0.25456 -0.52116,-0.78604 -0.2666,-1.1868c0.85828,-1.35192 1.86964,-2.44584 3.01172,-3.25252c0.301,-0.21328 0.70692,-0.20984 1.00448,0.01032c3.3798,2.48368 5.44896,7.4304 5.39908,12.9086c-0.01204,1.26592 -0.14276,2.53356 -0.39216,3.76336c-0.11868,0.58308 0.1204,1.17992 0.62436,1.55488c0.5074,0.38184 1.12316,0.45064 1.63056,0.19952c1.20744,-0.59684 2.49056,-1.07672 3.81152,-1.42244c1.80256,-0.473 3.62576,-0.6966 5.39048,-0.66908c0.47472,0.0086 0.85312,0.39904 0.84624,0.87376c-0.00688,0.46956 -0.39216,0.84624 -0.86,0.84624c-0.08428,-0.00172 -0.19608,-0.00172 -0.29412,-0.00172c-1.52908,0 -3.08912,0.2064 -4.64572,0.61576c-1.20916,0.3182 -2.3822,0.75508 -3.48472,1.30032c-0.4472,0.22188 -0.9288,0.33024 -1.40868,0.33024z"></path></g><g fill="#472b29"><path d="M104.275,86.74304c-0.31476,0 -0.61748,-0.172 -0.76884,-0.473c-0.215,-0.42484 -0.043,-0.94084 0.38012,-1.15584c2.77608,-1.4018 4.9106,-3.4142 5.95636,-5.59172c-0.9976,-0.69488 -2.236,-1.23152 -3.61888,-1.56348c-0.46268,-0.11008 -0.74648,-0.57448 -0.6364,-1.03716c0.11008,-0.46268 0.57448,-0.7482 1.03716,-0.63468c1.88168,0.45236 3.54836,1.24528 4.82116,2.29448c0.28552,0.23564 0.38872,0.6278 0.25456,0.9718c-1.075,2.79328 -3.64124,5.38016 -7.03996,7.09672c-0.12212,0.06364 -0.25456,0.09288 -0.38528,0.09288z"></path></g><g fill="#472b29"><path d="M100.58044,108.145c-0.0086,0 -0.01892,0 -0.02752,0c-1.4964,-0.04816 -3.04612,-0.44892 -4.60444,-1.19368c-0.43,-0.20468 -0.6106,-0.71724 -0.40592,-1.14724c0.20468,-0.43 0.71724,-0.6106 1.14724,-0.40592c1.118,0.53492 2.2188,0.86344 3.28004,0.98212c0.93224,-3.32476 -0.05848,-7.78816 -2.6144,-11.5842c-0.74992,-1.11284 -1.61164,-2.13624 -2.5628,-3.04268c-0.78432,-0.74648 -1.06124,-1.86276 -0.70348,-2.84832c0.387,-1.11284 1.30548,-1.78364 2.38564,-1.83524c1.26248,-0.0602 2.52496,-0.25456 3.75304,-0.5762c0.46096,-0.12212 0.93052,0.15308 1.05092,0.61404c0.1204,0.45924 -0.1548,0.93052 -0.61404,1.05092c-1.34332,0.3526 -2.72448,0.56416 -4.10736,0.63124c-0.37496,0.0172 -0.688,0.23564 -0.7998,0.55556c-0.17888,0.49536 -0.07396,0.88408 0.22016,1.16444c1.0406,0.99244 1.98488,2.11216 2.8036,3.3282c3.05988,4.54596 4.05748,9.81432 2.60408,13.74796c-0.12212,0.3354 -0.44548,0.559 -0.80496,0.559z"></path></g><g fill="#472b29"><path d="M70.87604,108.145c-0.35948,0 -0.68112,-0.2236 -0.80668,-0.56244c-1.09908,-2.97732 -0.79636,-6.81636 0.83248,-10.53328c0.1892,-0.43516 0.69316,-0.63296 1.13348,-0.44204c0.43516,0.19092 0.63296,0.69832 0.44204,1.13348c-1.33988,3.05816 -1.68904,6.16276 -0.99072,8.63956c3.42968,-0.387 7.19304,-2.9842 9.74896,-6.78196c0.69316,-1.02856 1.28312,-2.13108 1.75096,-3.27316c0.45064,-1.1008 1.53596,-1.83352 2.79156,-1.79396c1.21776,0.0258 2.2618,0.72928 2.69696,1.79052c0.46784,1.14552 1.0578,2.24632 1.74924,3.27488c0.98728,1.46716 2.13968,2.75372 3.42452,3.82356c0.36464,0.30444 0.41452,0.84624 0.11008,1.21088c-0.30444,0.36464 -0.84624,0.41452 -1.2126,0.11008c-1.40868,-1.17476 -2.66944,-2.58172 -3.74788,-4.18476c-0.75852,-1.12488 -1.4018,-2.3306 -1.91608,-3.58448c-0.17544,-0.42828 -0.60888,-0.71208 -1.10596,-0.7224c-0.55556,-0.01892 -1.0148,0.27864 -1.19884,0.72584c-0.51256,1.25044 -1.15756,2.45444 -1.91608,3.58104c-3.05988,4.54596 -7.56456,7.45276 -11.75792,7.5852c-0.01032,0.00344 -0.01892,0.00344 -0.02752,0.00344z"></path></g><g fill="#472b29"><path d="M73.38552,95.17448c-0.16512,0 -0.33196,-0.04816 -0.47988,-0.1462c-0.39388,-0.26488 -0.4988,-0.7998 -0.2322,-1.19368c0.95804,-1.42244 2.07776,-2.70556 3.33164,-3.81152c0.22188,-0.19608 0.30616,-0.47644 0.21844,-0.73272c-0.09976,-0.2924 -0.34916,-0.4644 -0.65704,-0.46956c-1.58412,-0.0258 -3.1906,-0.2494 -4.77644,-0.66564c-5.29932,-1.39148 -9.5288,-4.687 -11.03552,-8.60172c-0.13244,-0.34572 -0.03096,-0.73616 0.25456,-0.9718c0.8772,-0.72412 1.9264,-1.31924 3.11664,-1.7716c0.44204,-0.16856 0.94084,0.05504 1.1094,0.4988c0.16856,0.44376 -0.05504,0.94084 -0.4988,1.1094c-0.78948,0.29928 -1.50156,0.66908 -2.12248,1.10424c1.49468,3.11148 5.18752,5.80844 9.61308,6.96944c1.45168,0.38012 2.92056,0.58652 4.36708,0.60888c1.03888,0.01548 1.92296,0.64844 2.25148,1.61336c0.3182,0.93052 0.03956,1.9436 -0.70176,2.5972c-1.14208,1.00964 -2.1672,2.18096 -3.04268,3.48128c-0.16856,0.2494 -0.44032,0.38184 -0.71552,0.38184z"></path></g><g fill="#472b29"><path d="M72.24,77.8902c-0.05332,0 -0.10664,-0.00516 -0.15996,-0.01548c-1.8232,-0.344 -3.61544,-0.40764 -5.3234,-0.19264c-0.47816,0.05848 -0.90128,-0.2752 -0.96148,-0.74476c-0.0602,-0.47128 0.2752,-0.90128 0.74648,-0.96148c1.88512,-0.23736 3.85452,-0.16684 5.8566,0.20812c0.46612,0.08772 0.774,0.53836 0.68628,1.00448c-0.0774,0.4128 -0.4386,0.70176 -0.84452,0.70176z"></path></g><g fill="#472b29"><path d="M86.86,52.89c-0.23736,0 -0.43,-0.19264 -0.43,-0.43v-12.04c0,-0.23736 0.19264,-0.43 0.43,-0.43c0.23736,0 0.43,0.19264 0.43,0.43v12.04c0,0.23736 -0.19264,0.43 -0.43,0.43z"></path></g><g fill="#472b29"><path d="M53.148,77.53932c-0.0344,0 -0.0688,-0.00344 -0.1032,-0.01204l-11.696,-2.85864c-0.23048,-0.05676 -0.37152,-0.28896 -0.31476,-0.51944c0.05676,-0.23048 0.28724,-0.37324 0.51944,-0.31648l11.696,2.85864c0.23048,0.05676 0.37152,0.28896 0.31476,0.51944c-0.04644,0.1978 -0.22188,0.32852 -0.41624,0.32852z"></path></g><g fill="#472b29"><path d="M58.695,124.786c-0.08772,0 -0.17544,-0.0258 -0.25112,-0.08084c-0.19264,-0.13932 -0.23564,-0.40764 -0.09632,-0.60028l7.04856,-9.761c0.13932,-0.19264 0.40936,-0.23564 0.60028,-0.09632c0.19264,0.13932 0.23564,0.40764 0.09632,0.60028l-7.04856,9.761c-0.08428,0.11524 -0.21672,0.17716 -0.34916,0.17716z"></path></g><g fill="#472b29"><path d="M113.04356,124.786c-0.13244,0 -0.26488,-0.06192 -0.34916,-0.17888l-7.04856,-9.761c-0.13932,-0.19264 -0.09632,-0.46096 0.09632,-0.60028c0.19092,-0.13932 0.46096,-0.09632 0.60028,0.09632l7.04856,9.761c0.13932,0.19264 0.09632,0.46096 -0.09632,0.60028c-0.07568,0.05504 -0.1634,0.08256 -0.25112,0.08256z"></path></g><g fill="#472b29"><path d="M119.11,77.53932c-0.19436,0 -0.3698,-0.13072 -0.41796,-0.32852c-0.05676,-0.23048 0.08428,-0.46268 0.31476,-0.51944l11.696,-2.85864c0.23564,-0.05676 0.4644,0.086 0.51944,0.31648c0.05676,0.23048 -0.08428,0.46268 -0.31476,0.51944l-11.696,2.85864c-0.03268,0.0086 -0.06708,0.01204 -0.10148,0.01204z"></path></g></g></g></svg>