<svg xmlns="http://www.w3.org/2000/svg" x="0px" y="0px"
width="50" height="50"
viewBox="0 0 172 172"
style=" fill:#000000;"><g fill="none" fill-rule="nonzero" stroke="none" stroke-width="1" stroke-linecap="butt" stroke-linejoin="miter" stroke-miterlimit="10" stroke-dasharray="" stroke-dashoffset="0" font-family="none" font-weight="none" font-size="none" text-anchor="none" style="mix-blend-mode: normal"><path d="M0,172v-172h172v172z" fill="none"></path><g><path d="M22.36,46.44c-1.89986,0 -3.44,1.54014 -3.44,3.44c0,1.89986 1.54014,3.44 3.44,3.44c1.89986,0 3.44,-1.54014 3.44,-3.44c0,-1.89986 -1.54014,-3.44 -3.44,-3.44z" fill="#78a0cf"></path><path d="M132.44,20.64c-0.94993,0 -1.72,0.77007 -1.72,1.72c0,0.94993 0.77007,1.72 1.72,1.72c0.94993,0 1.72,-0.77007 1.72,-1.72c0,-0.94993 -0.77007,-1.72 -1.72,-1.72z" fill="#f1bc19"></path><path d="M86,22.36c-35.1474,0 -63.64,28.4926 -63.64,63.64c0,35.1474 28.4926,63.64 63.64,63.64c35.1474,0 63.64,-28.4926 63.64,-63.64c0,-35.1474 -28.4926,-63.64 -63.64,-63.64z" fill="#cee1f4"></path><path d="M142.76,18.92c-3.79972,0 -6.88,3.08028 -6.88,6.88c0,3.79972 3.08028,6.88 6.88,6.88c3.79972,0 6.88,-3.08028 6.88,-6.88c0,-3.79972 -3.08028,-6.88 -6.88,-6.88z" fill="#f1bc19"></path><path d="M149.64,37.84c-1.89986,0 -3.44,1.54014 -3.44,3.44c0,1.89986 1.54014,3.44 3.44,3.44c1.89986,0 3.44,-1.54014 3.44,-3.44c0,-1.89986 -1.54014,-3.44 -3.44,-3.44z" fill="#78a0cf"></path><path d="M139.32,127.28c-1.89986,0 -3.44,1.54014 -3.44,3.44c0,1.89986 1.54014,3.44 3.44,3.44c1.89986,0 3.44,-1.54014 3.44,-3.44c0,-1.89986 -1.54014,-3.44 -3.44,-3.44zM25.8,101.48c-3.79972,0 -6.88,3.08028 -6.88,6.88c0,3.79972 3.08028,6.88 6.88,6.88c3.79972,0 6.88,-3.08028 6.88,-6.88c0,-3.79972 -3.08028,-6.88 -6.88,-6.88z" fill="#fbcd59"></path><path d="M43,146.2c-1.89986,0 -3.44,1.54014 -3.44,3.44c0,1.89986 1.54014,3.44 3.44,3.44c1.89986,0 3.44,-1.54014 3.44,-3.44c0,-1.89986 -1.54014,-3.44 -3.44,-3.44z" fill="#78a0cf"></path><path d="M31.82,87.72c-2.37482,0 -4.3,1.92518 -4.3,4.3c0,2.37482 1.92518,4.3 4.3,4.3c2.37482,0 4.3,-1.92518 4.3,-4.3c0,-2.37482 -1.92518,-4.3 -4.3,-4.3z" fill="#ffffff"></path><path d="M36.12,113.52c-0.94993,0 -1.72,0.77007 -1.72,1.72c0,0.94993 0.77007,1.72 1.72,1.72c0.94993,0 1.72,-0.77007 1.72,-1.72c0,-0.94993 -0.77007,-1.72 -1.72,-1.72z" fill="#f1bc19"></path><path d="M137.6,56.76c-0.94993,0 -1.72,0.77007 -1.72,1.72c0,0.94993 0.77007,1.72 1.72,1.72c0.94993,0 1.72,-0.77007 1.72,-1.72c0,-0.94993 -0.77007,-1.72 -1.72,-1.72z" fill="#ffffff"></path><g><path d="M114.80828,54.30556l-36.97828,9.2794v44.81632v2.6832c0.00516,4.14176 -4.96564,9.42216 -13.27496,12.62652c-9.34992,3.6034 -18.31628,3.0788 -20.02596,-1.17132c-1.70968,-4.25184 4.48576,-10.61756 13.83568,-14.22268c4.30516,-1.6598 8.1098,-2.15688 11.58076,-2.107l-0.00172,-1.19024v-47.48576l52.65436,-13.34548v51.04788v2.6832c0.00516,4.14176 -5.81016,9.52708 -14.11948,12.72972c-9.34992,3.6034 -18.31628,3.0788 -20.02596,-1.17132c-1.70968,-4.25184 4.48576,-10.61756 13.83568,-14.22268c4.30516,-1.6598 9.0472,-2.71588 12.51816,-2.66428l-0.00172,-1.19024v-37.09524z" fill="#e74c3c"></path><path d="M52.9588,127.2972c-4.7902,0 -8.40564,-1.47232 -9.546,-4.31032c-0.56588,-1.40352 -0.47816,-3.0358 0.25112,-4.7128c1.79912,-4.13488 7.267,-8.38156 14.2674,-11.08024c3.5776,-1.37944 7.12768,-2.09668 10.80848,-2.18268v-47.47716c0,-0.5504 0.37496,-1.032 0.90816,-1.16788l52.65264,-13.34548c0.35432,-0.09632 0.74132,-0.01376 1.03544,0.21672c0.29412,0.22876 0.46612,0.57964 0.46612,0.95116v53.73108c0.00688,4.773 -6.11632,10.47136 -14.89004,13.85288c-10.1136,3.89924 -19.5908,3.08912 -21.57396,-1.84384c-0.56588,-1.40352 -0.47816,-3.0358 0.25112,-4.7128c1.79912,-4.1366 7.267,-8.38328 14.2674,-11.08196c4.08156,-1.57208 8.36436,-2.55764 11.74588,-2.72104v-35.56444l-34.56856,8.67568v46.55868c0.0086,4.98112 -5.63644,10.50748 -14.04552,13.74968c-4.30172,1.65808 -8.48648,2.46476 -12.02968,2.46476zM69.48972,107.41056c-3.65156,0 -7.15348,0.66564 -10.69152,2.0296c-6.32616,2.43724 -11.39844,6.28144 -12.9258,9.79368c-0.473,1.08876 -0.5504,2.04852 -0.22704,2.8552c1.25388,3.11836 9.1504,4.0936 18.47452,0.49536c8.21472,-3.16824 12.50784,-8.18376 12.5044,-11.50164v-47.4978c0,-0.55212 0.37668,-1.03372 0.9116,-1.16788l36.97828,-9.28112c0.35776,-0.0946 0.74132,-0.0086 1.03372,0.21844c0.2924,0.22876 0.4644,0.57792 0.4644,0.94944l0.00172,38.2872c0,0.32336 -0.129,0.63124 -0.35776,0.85828c-0.23048,0.22876 -0.49708,0.4042 -0.86344,0.34744c-3.29552,-0.03612 -7.75204,0.91848 -12.06924,2.58344c-6.32444,2.43724 -11.39844,6.28144 -12.9258,9.7954c-0.473,1.08876 -0.5504,2.04852 -0.22704,2.8552c1.25388,3.11664 9.14524,4.09188 18.4728,0.49364c8.6774,-3.34196 13.35408,-8.47272 13.34892,-11.60312v-52.1848l-50.24464,12.73488l0.00172,47.73688c0,0.32336 -0.129,0.63124 -0.35776,0.85828c-0.23048,0.22704 -0.54868,0.3698 -0.86344,0.34744c-0.1462,-0.00344 -0.2924,-0.00344 -0.4386,-0.00344z" fill="#472b29"></path><path d="M78.11724,70.80724l29.03876,-7.02448" fill="#1f212b"></path><path d="M78.11724,71.66724c-0.38872,0 -0.74132,-0.26316 -0.83592,-0.65876c-0.11008,-0.46096 0.17372,-0.92536 0.63468,-1.03888l29.03876,-7.02448c0.46612,-0.1032 0.92708,0.17544 1.03888,0.63468c0.1118,0.45924 -0.17372,0.92536 -0.63468,1.03888l-29.03876,7.02448c-0.0688,0.01548 -0.1376,0.02408 -0.20296,0.02408zM102.81988,107.97988c-0.19608,0 -0.37324,-0.13416 -0.41796,-0.33196c-0.05332,-0.2322 0.09116,-0.4644 0.32164,-0.516c5.68288,-1.31236 10.38364,-4.15036 12.34788,-6.235c0.1634,-0.17372 0.43344,-0.1806 0.60888,-0.0172c0.172,0.1634 0.17888,0.43516 0.0172,0.60888c-2.04852,2.17408 -6.92128,5.12904 -12.77788,6.48096c-0.03612,0.00688 -0.06708,0.01032 -0.09976,0.01032zM96.78784,108.69196c-1.032,0 -2.0468,-0.06364 -3.03236,-0.19264c-0.23564,-0.03268 -0.40076,-0.24768 -0.37152,-0.4816c0.02924,-0.23392 0.24596,-0.40076 0.4816,-0.37152c1.20056,0.15824 2.45616,0.22188 3.7238,0.17372c0.19952,-0.00172 0.43688,0.17888 0.44548,0.41452c0.0086,0.23908 -0.17888,0.43688 -0.41452,0.44548c-0.27692,0.00688 -0.55384,0.01204 -0.83248,0.01204zM52.675,122.16128c-0.5848,0 -1.11456,-0.03268 -1.57896,-0.09288c-0.23564,-0.03096 -0.40076,-0.24768 -0.37152,-0.4816c0.02924,-0.23392 0.24596,-0.40076 0.4816,-0.37152c2.84832,0.36808 8.27836,-0.4042 13.50716,-2.9842c0.21156,-0.1032 0.46956,-0.01892 0.5762,0.19608c0.10492,0.21328 0.0172,0.46956 -0.19608,0.5762c-4.54596,2.24116 -9.27252,3.15792 -12.4184,3.15792zM59.80956,112.72364c-0.172,0 -0.33196,-0.1032 -0.39904,-0.27004c-0.08772,-0.22188 0.02064,-0.47128 0.2408,-0.559c2.28932,-0.9116 4.60444,-1.5136 7.5078,-1.9522c0.25112,-0.04644 0.45408,0.12728 0.48848,0.3612c0.03612,0.23564 -0.12556,0.45408 -0.3612,0.48848c-2.83456,0.42828 -5.09292,1.0148 -7.31688,1.9006c-0.0516,0.02064 -0.10492,0.03096 -0.15996,0.03096z" fill="#472b29"></path><g fill="#472b29"><path d="M54.10776,115.67c-0.14276,0 -0.28208,-0.07052 -0.36464,-0.20124c-0.12556,-0.20124 -0.06536,-0.46612 0.13588,-0.5934c0.88064,-0.55212 1.74924,-1.05436 2.57828,-1.49468c0.20984,-0.10836 0.46956,-0.0344 0.58136,0.17888c0.11008,0.20984 0.03268,0.46956 -0.17888,0.58136c-0.81184,0.43 -1.66152,0.92192 -2.52496,1.46544c-0.0688,0.04128 -0.14792,0.06364 -0.22704,0.06364z"></path></g><g fill="#472b29"><path d="M68.37,116.96c-0.14276,0 -0.2838,-0.07224 -0.36636,-0.20296c-0.12384,-0.20124 -0.06192,-0.46612 0.13932,-0.5934c1.77848,-1.10252 3.32304,-2.67804 3.75476,-3.13556c0.1634,-0.172 0.43344,-0.1806 0.60888,-0.0172c0.172,0.1634 0.17888,0.43516 0.0172,0.60888c-0.44892,0.47472 -2.05712,2.11904 -3.92504,3.2766c-0.07224,0.043 -0.15136,0.06364 -0.22876,0.06364z"></path></g></g></g></g></svg>