<svg xmlns="http://www.w3.org/2000/svg" x="0px" y="0px"
width="50" height="50"
viewBox="0 0 100 100"
style=" fill:#000000;"><path fill="#fff" d="M19.8 54.800000000000004A.9.9 0 1 0 19.8 56.6.9.9 0 1 0 19.8 54.800000000000004zM78.9 30.1A.7.7 0 1 0 78.9 31.5.7.7 0 1 0 78.9 30.1z"></path><path fill="#f1bc19" d="M76.3 10.799999999999999A.9.9 0 1 0 76.3 12.6.9.9 0 1 0 76.3 10.799999999999999zM20.3 62.4A.9.9 0 1 0 20.3 64.2.9.9 0 1 0 20.3 62.4z"></path><path fill="#e6edb7" d="M49.1 11.5A37.5 37.5 0 1 0 49.1 86.5A37.5 37.5 0 1 0 49.1 11.5Z"></path><path fill="#f1bc19" d="M81.7 9.9A4 4 0 1 0 81.7 17.9A4 4 0 1 0 81.7 9.9Z"></path><path fill="#f76d4d" d="M85.7 21.1A1.9 1.9 0 1 0 85.7 24.9A1.9 1.9 0 1 0 85.7 21.1Z"></path><path fill="#fbcd59" d="M76.7 73.5A1.9 1.9 0 1 0 76.7 77.30000000000001 1.9 1.9 0 1 0 76.7 73.5zM13.5 58.4A4 4 0 1 0 13.5 66.4 4 4 0 1 0 13.5 58.4z"></path><path fill="#f76d4d" d="M23.8 84.69999999999999A1.9 1.9 0 1 0 23.8 88.5A1.9 1.9 0 1 0 23.8 84.69999999999999Z"></path><path fill="#fff" d="M75.4 27.5A1.8 1.8 0 1 0 75.4 31.1 1.8 1.8 0 1 0 75.4 27.5zM17.3 47.8A2.5 2.5 0 1 0 17.3 52.8 2.5 2.5 0 1 0 17.3 47.8z"></path><path fill="#512c2b" d="M65.3,62.3l-0.1,0.3c-0.2,0.9-0.5,1.7-0.8,2.5c-0.4,1.1-0.9,2.2-1.7,3.2c-0.9,1.2-2.3,1.8-3.8,1.8 H42c-1,0-2-0.2-2.9-0.8c-0.3-0.3-0.7-0.6-0.9-0.9c-0.7-1-1.3-2-1.7-3.2c-0.3-0.8-0.5-1.6-0.8-2.5c0-0.1,0-0.2-0.1-0.3 c-2.7-10.5-1.9-29.1,4.1-34.7c2.8-2.8,6.7-4.4,10.7-4.3c3.3-0.1,6.4,1,9,3c0.6,0.4,1.1,0.9,1.6,1.4c0.2,0.2,0.4,0.4,0.6,0.6 C67.2,34.5,67.9,52.2,65.3,62.3z"></path><path fill="#f6cca4" d="M62.5,41c0.1-1.5-0.3-2.8-0.2-3.6l0,0c-1.3-1.6-2.2-3.6-4-4.8c-2.1-1.3-4.4-2.2-6.8-2.8 c-5.7-1.4-11.3,2.7-13.1,8.1c0,0,0,0.1-0.1,0.1c0.2,1,0.3,1.9,0.4,2.9c-1.5,0-2.3,0.8-1.8,2.4c0,0,0.6,2.6,1,3.9 c0.1,0.7,0.8,1.2,1.5,1.2c0,0.8,0,1.7,0,2.5c0,1,0.3,2,0.9,2.8c1.5,2.2,9.2,7.2,11.1,7c3,0,9-5.1,10.6-7.7 c0.3-0.5,0.4-1.1,0.5-1.7c0-1,0-2,0-3c0.6-0.1,1.1-0.6,1.3-1.2c0.4-1.3,1-3.9,1-3.9C65.2,41.8,64,40.9,62.5,41z"></path><path fill="#edbc94" d="M67.1,66.5c-0.1,0-0.2-0.1-0.3-0.1l-0.6-0.2c-1.2-0.5-9.3-3.3-9.3-3.3c-0.6-0.2-1-0.6-1.2-1.1 c-0.2-1-0.3-1.9-0.2-2.9c-1.4,0.6-2.8,1.1-4.2,1.4c-1.9,0.2-5.2-2.3-5.2-2.3s-0.1,3-0.2,3.7c-0.2,0.6-0.7,1-1.3,1.1l-7.7,2.6 c-2.7,0.7-4.9,2.8-5.5,5.6h0c0,0.1,0,0.3-0.1,0.6c-0.1,0.4-0.1,0.9-0.1,1.3c0,0.5-0.1,7.4-0.1,7.9c9.4,5.4,13.3,5.1,23.9,5.1 c4.6,0,11.9-4.4,16-6C70.4,70.7,71.4,67.8,67.1,66.5z"></path><g opacity=".3"><path fill="#f4989e" d="M43.7 47.6A2 2 0 1 0 43.7 51.6 2 2 0 1 0 43.7 47.6zM58.8 47.6A2 2 0 1 0 58.8 51.6 2 2 0 1 0 58.8 47.6z" opacity=".8"></path></g><path fill="#472b29" d="M39.7 49.2c-.1 0-.2-.1-.2-.2l-.8-8c0-.1.1-.2.2-.2.1 0 .2.1.2.2l.8 8C39.9 49.1 39.8 49.2 39.7 49.2 39.7 49.2 39.7 49.2 39.7 49.2zM62.2 48.8C62.2 48.8 62.2 48.8 62.2 48.8c-.1 0-.2-.1-.2-.2l.5-8.1c0-.1.1-.2.2-.2.1 0 .2.1.2.2l-.5 8.1C62.4 48.7 62.3 48.8 62.2 48.8z"></path><path fill="#6d1b18" d="M47.7,53.7c0,0.2-0.1,0.3-0.1,0.5c0,1.4,1.5,2.5,3.5,2.5s3.5-1.1,3.5-2.5c0-0.2,0-0.3-0.1-0.5 H47.7z"></path><path fill="#ee3e54" d="M52.9,56.3c-0.5-0.4-1.2-0.6-1.8-0.6c-0.7,0-1.3,0.2-1.8,0.6c0.6,0.3,1.2,0.4,1.8,0.4 C51.7,56.7,52.3,56.6,52.9,56.3z"></path><path fill="#fdfcef" d="M48.7,53.7v0.5c0,0.4,0.5,0.7,1.1,0.7h2.6c0.6,0,1.1-0.3,1.1-0.7v-0.4l0,0L48.7,53.7z"></path><path fill="#472b29" d="M51,56.9c-2,0-3.6-1.2-3.6-2.7c0-0.2,0-0.4,0.1-0.5c0-0.1,0.1-0.2,0.2-0.2h6.8 c0.1,0,0.2,0.1,0.2,0.2c0,0.2,0.1,0.3,0.1,0.5C54.7,55.7,53.1,56.9,51,56.9z M47.8,53.9c0,0.1,0,0.2,0,0.3c0,1.3,1.5,2.3,3.2,2.3 s3.3-1,3.3-2.3c0-0.1,0-0.2,0-0.3H47.8z"></path><path fill="#6f913d" d="M42.1,63.8c-0.1,4.5,8.5,2,8.5,2s8.3,2.5,7.7-2.6l4.9,1.7l1.4,18.7c0,0-14,5.9-28.4,0.5l0.7-18.5 L42.1,63.8z"></path><path fill="#e6e7e8" d="M50.6 65.7L43.8 63.1 41.8 64.1 45.5 71.9zM50.6 65.7L57.4 63.1 59.5 63.9 55.7 71.9z"></path><path fill="#472b29" d="M51 51.8c.8 0 1.5-.3 2-.9 0-.1 0-.1 0-.2l0 0c-.1 0-.1 0-.2 0-.5.5-1.1.7-1.8.7-.7 0-1.3-.2-1.8-.7 0 0-.1 0-.1 0-.1 0-.1.1-.1.1 0 0 0 .1 0 .1C49.6 51.5 50.3 51.8 51 51.8zM51.9 58.6C52 58.6 52 58.5 51.9 58.6c.1-.1 0-.2 0-.2h-1.8c0 0-.1 0-.1.1 0 0 0 0 0 0 0 0 0 .1.1.1H51.9z" opacity=".41"></path><path fill="#512c2b" d="M49 39.8c-2.4-.7-4.9-1-7.4-.8-.1 0-.2.1-.2.2 0 .1.1.2.2.2 0 0 5.1.9 6.6 1.4h.1c.1 0 .2 0 .2-.1l.6-.7c0-.1 0-.1 0-.2C49.1 39.8 49 39.8 49 39.8zM53 39.6c2.4-.6 5-.7 7.5-.4.1 0 .2 0 .2.2 0 .1 0 .2-.2.2 0 0-.1 0-.1 0 0 0-5.1.6-6.7 1.1h-.1c-.1 0-.2 0-.2-.1l-.6-.7c0-.1 0-.1 0-.2C52.9 39.7 52.9 39.6 53 39.6z"></path><path fill="#472b29" d="M45.5 41.9c-.5 0-1 .3-1.2.8.1 0 .1 0 .2 0 .5 0 .8.4.8.8 0 .5-.4.8-.8.8-.1 0-.3 0-.4-.1.1.7.7 1.2 1.4 1.3 1-.2 1.6-1.3 1.4-2.3C46.7 42.6 46.1 42.1 45.5 41.9L45.5 41.9zM56.5 41.9c-.4 0-.8.2-1.1.6.1 0 .2-.1.3-.1.5 0 .8.4.8.8 0 .5-.4.8-.8.8-.3 0-.5-.1-.6-.4-.1.9.6 1.7 1.4 1.8 1-.2 1.6-1.2 1.4-2.2C57.7 42.6 57.2 42 56.5 41.9zM51.4 60.5c-1.9 0-5-1.7-5.2-1.7-.1-.1-.2-.2-.1-.3.1-.1.2-.2.3-.1 0 0 3.4 1.8 5.1 1.7 1.5-.3 2.9-.8 4.3-1.6.1-.1.3 0 .3.1.1.1 0 .3-.1.3-1.4.8-2.9 1.4-4.5 1.7C51.6 60.5 51.5 60.5 51.4 60.5z"></path><path fill="#472b29" d="M50.1,86.8c-6.7,0-13.4-1.7-19.3-5.2c-0.1-0.1-0.2-0.2-0.2-0.4c-0.2-8.5,1.1-13.5,4-15 c0.7-0.4,1.5-0.7,2.2-0.9l7.7-2.6c0.5-0.1,0.8-0.4,0.9-0.8c0.1-0.4,0.2-2,0.2-2.8l0,0c-2.3-1.5-4.9-3.4-5.8-4.7 c-0.7-0.9-1-2.1-0.9-3.2l0-2c-0.7-0.2-1.3-0.8-1.5-1.6c-0.4-1.2-1-3.8-1-3.9c-0.4-1.1-0.1-1.8,0.2-2.2c0.2-0.3,0.7-0.7,1.6-0.8 c0-0.2,0-0.3,0-0.5c-0.3-0.5-0.4-1.1-0.5-1.7c0-6.6,5.8-11.8,12.9-11.8c7.1,0,12.9,5.3,12.9,11.8c0,0.7-0.2,1.3-0.5,1.9 c0,0,0,0,0,0c0,0.1,0,0.2,0,0.3c0.8,0.1,1.5,0.4,1.9,1c0.3,0.4,0.6,1.1,0.2,2.1l0,0c-0.1,0.6-0.7,3-1,3.9 c-0.1,0.6-0.6,1.2-1.2,1.4v2.6c0,0.7-0.2,1.3-0.5,1.9c-1.8,2.4-3.9,4.4-6.4,6c0,0.8,0,1.5,0.2,2.3c0.1,0.3,0.5,0.6,0.9,0.7 c0.4,0.1,8.1,2.8,9.3,3.3l0.9,0.4c3.8,1.2,3.9,6.1,4.1,13l0,0.7c0,0,0,0,0,0v0c0,0.2-0.1,0.3-0.2,0.4 C64.9,84.6,57.5,86.8,50.1,86.8z M31.5,80.8c12,7,27.2,6.6,38.9-1.1l0-0.5c-0.2-6.7-0.3-11.1-3.4-12.1l-1-0.4 c-1.2-0.5-9.1-3.2-9.2-3.3c-0.7-0.2-1.3-0.7-1.5-1.3c-0.3-1-0.4-2-0.3-2.9c0-0.2,0.1-0.3,0.2-0.4c2.5-1.6,4.6-3.5,6.3-5.9 c0.2-0.4,0.4-0.9,0.4-1.4v-3c0-0.3,0.2-0.5,0.4-0.5c0.4-0.1,0.8-0.4,0.8-0.8c0.4-1.3,1-3.8,1-3.9c0.2-0.6,0.2-1-0.1-1.3 c-0.3-0.4-0.9-0.6-1.6-0.6c-0.1,0-0.3,0-0.4-0.1c-0.1-0.1-0.1-0.2-0.1-0.4c0-0.8,0-1.2,0.2-1.3c0.2-0.4,0.3-0.9,0.3-1.4 c0-5.9-5.3-10.8-11.9-10.8c-6.6,0-11.9,4.8-11.9,10.8c0.1,0.4,0.2,0.9,0.4,1.4c0,0.1,0,0.1,0.1,0.2c0.1,0.4,0.1,0.8,0.1,1.1 c0,0.1,0,0.3-0.1,0.4c-0.1,0.1-0.2,0.2-0.4,0.2c-0.4,0-1,0.1-1.3,0.4c-0.3,0.4-0.2,0.9,0,1.3c0,0.1,0.6,2.7,1,3.9 c0.1,0.5,0.5,0.8,1,0.9c0.1,0,0.3,0.1,0.4,0.1c0.1,0.1,0.1,0.2,0.1,0.4v2.5c-0.1,0.9,0.2,1.9,0.7,2.6c0.7,1,3.1,2.9,5.8,4.6 c0.2,0.1,0.2,0.3,0.2,0.5l0,0.3c-0.1,1.2-0.2,2.5-0.3,3c-0.3,0.8-0.9,1.4-1.6,1.5l-7.7,2.6c-0.7,0.2-1.4,0.5-2.1,0.9 C33.6,67.7,31.3,70.5,31.5,80.8z M70.9,79.9L70.9,79.9L70.9,79.9L70.9,79.9z"></path><path fill="#512c2b" d="M51.2,25.6c-10.9,0.2-13.9,9.7-14.4,11.6c0.3-0.3,0.6-0.6,0.9-0.9c-0.7,3.5,1.3,6.4,2.8,9.3 c-1.5-2.9,5.4-10.6,10.7-12.4c-0.3,0.5-0.6,1.1-0.9,1.7s-1.1,4-1.5,4.1c2.7-1.1,4.9-2.9,6.6-5.3c0.3-0.5,0.6-1,0.8-1.6 c-0.5,6.5,6.4,9.9,6.1,13.7c2.5-3.6,1.7-7.8,0.8-11.9C63.2,34,60.1,25.5,51.2,25.6z"></path><g><path fill="#fdfcee" d="M69.7 57.50000000000001A14.4 14.4 0 1 0 69.7 86.30000000000001A14.4 14.4 0 1 0 69.7 57.50000000000001Z"></path><path fill="#472b29" d="M69.7,86.7c-8.2,0-14.8-6.6-14.8-14.8c0-8.2,6.6-14.8,14.8-14.8s14.8,6.6,14.8,14.8 C84.5,80,77.8,86.7,69.7,86.7z M69.7,57.8c-7.8,0-14.1,6.3-14.1,14.1s6.3,14.1,14.1,14.1s14.1-6.3,14.1-14.1S77.4,57.8,69.7,57.8 z"></path></g><g><path fill="#f76d4d" d="M69.7 60.00000000000001A11.9 11.9 0 1 0 69.7 83.80000000000001A11.9 11.9 0 1 0 69.7 60.00000000000001Z"></path><path fill="#472b29" d="M69.7,84c-6.7,0-12.2-5.5-12.2-12.2c0-6.7,5.5-12.2,12.2-12.2s12.2,5.5,12.2,12.2 C81.8,78.6,76.4,84,69.7,84z M69.7,60.2c-6.4,0-11.7,5.2-11.7,11.7s5.2,11.7,11.7,11.7s11.7-5.2,11.7-11.7S76.1,60.2,69.7,60.2z"></path></g><path fill="#ef8f70" d="M69.6,61.7c5.1,0,9.7,3.2,11.5,8 c-1.2-6.4-7.4-10.5-13.7-9.3c-4.7,0.9-8.4,4.6-9.3,9.3C59.9,64.9,64.5,61.7,69.6,61.7z" opacity=".79"></path><g><path fill="#fdfcef" d="M73.9,68.2c0.2-0.2,0.2-0.6,0-0.8c-0.1-0.1-0.2-0.1-0.4-0.1h-7.6c-0.3,0-0.5,0.3-0.5,0.6 c0,0.1,0,0.2,0.1,0.3l3.6,4.3v3.6h-2.3c-0.3,0-0.6,0.3-0.6,0.6c0,0.3,0.3,0.6,0.6,0.6h5.7c0.3,0,0.6-0.3,0.6-0.6c0,0,0,0,0,0 c0-0.3-0.3-0.6-0.6-0.6l0,0h-2.3v-3.6L73.9,68.2z"></path><path fill="#472b29" d="M72.5,77.6C72.5,77.6,72.5,77.6,72.5,77.6h-5.8c-0.5,0-0.9-0.4-0.9-0.9c0-0.5,0.4-0.9,0.9-0.9h2 v-3.1l-3.5-4.2c-0.1-0.2-0.2-0.4-0.2-0.6c0-0.5,0.4-0.9,0.9-0.9h7.6c0.2,0,0.4,0.1,0.6,0.2c0.4,0.3,0.4,0.9,0.1,1.2l-3.5,4.2v3.1 h1.9c0.5,0,0.9,0.4,0.9,0.9c0,0.3-0.1,0.5-0.3,0.7C73,77.5,72.8,77.6,72.5,77.6z M66.8,76.4c-0.1,0-0.3,0.1-0.3,0.3 c0,0.2,0.1,0.3,0.3,0.3h5.7c0.1,0,0.1,0,0.2-0.1c0.1-0.1,0.1-0.1,0.1-0.2c0-0.2-0.1-0.3-0.3-0.3h-2.3c-0.2,0-0.3-0.1-0.3-0.3 v-3.6c0-0.1,0-0.2,0.1-0.2l3.6-4.3c0,0,0,0,0,0c0.1-0.1,0.1-0.2,0-0.3c0,0-0.1,0-0.2-0.1h-7.6c-0.1,0-0.2,0.1-0.2,0.2 c0,0.1,0,0.1,0.1,0.1l3.6,4.3c0,0.1,0.1,0.1,0.1,0.2v3.6c0,0.2-0.1,0.3-0.3,0.3H66.8z"></path></g></svg>