<svg xmlns="http://www.w3.org/2000/svg" x="0px" y="0px"
width="50" height="50"
viewBox="0 0 172 172"
style=" fill:#000000;"><g fill="none" fill-rule="nonzero" stroke="none" stroke-width="1" stroke-linecap="butt" stroke-linejoin="miter" stroke-miterlimit="10" stroke-dasharray="" stroke-dashoffset="0" font-family="none" font-weight="none" font-size="none" text-anchor="none" style="mix-blend-mode: normal"><path d="M0,172v-172h172v172z" fill="none"></path><g><path d="M132.44,20.64c-0.94993,0 -1.72,0.77007 -1.72,1.72c0,0.94993 0.77007,1.72 1.72,1.72c0.94993,0 1.72,-0.77007 1.72,-1.72c0,-0.94993 -0.77007,-1.72 -1.72,-1.72z" fill="#f1bc19"></path><path d="M86,22.36c-35.1474,0 -63.64,28.4926 -63.64,63.64c0,35.1474 28.4926,63.64 63.64,63.64c35.1474,0 63.64,-28.4926 63.64,-63.64c0,-35.1474 -28.4926,-63.64 -63.64,-63.64z" fill="#e4e4f9"></path><path d="M142.76,18.92c-3.79972,0 -6.88,3.08028 -6.88,6.88c0,3.79972 3.08028,6.88 6.88,6.88c3.79972,0 6.88,-3.08028 6.88,-6.88c0,-3.79972 -3.08028,-6.88 -6.88,-6.88z" fill="#f1bc19"></path><path d="M149.64,37.84c-1.89986,0 -3.44,1.54014 -3.44,3.44c0,1.89986 1.54014,3.44 3.44,3.44c1.89986,0 3.44,-1.54014 3.44,-3.44c0,-1.89986 -1.54014,-3.44 -3.44,-3.44z" fill="#8889b9"></path><path d="M139.32,127.28c-1.89986,0 -3.44,1.54014 -3.44,3.44c0,1.89986 1.54014,3.44 3.44,3.44c1.89986,0 3.44,-1.54014 3.44,-3.44c0,-1.89986 -1.54014,-3.44 -3.44,-3.44zM25.8,101.48c-3.79972,0 -6.88,3.08028 -6.88,6.88c0,3.79972 3.08028,6.88 6.88,6.88c3.79972,0 6.88,-3.08028 6.88,-6.88c0,-3.79972 -3.08028,-6.88 -6.88,-6.88z" fill="#fbcd59"></path><path d="M43,146.2c-1.89986,0 -3.44,1.54014 -3.44,3.44c0,1.89986 1.54014,3.44 3.44,3.44c1.89986,0 3.44,-1.54014 3.44,-3.44c0,-1.89986 -1.54014,-3.44 -3.44,-3.44z" fill="#8889b9"></path><path d="M31.82,84.28c-2.37482,0 -4.3,1.92518 -4.3,4.3c0,2.37482 1.92518,4.3 4.3,4.3c2.37482,0 4.3,-1.92518 4.3,-4.3c0,-2.37482 -1.92518,-4.3 -4.3,-4.3zM136.74,55.04c-1.42489,0 -2.58,1.15511 -2.58,2.58c0,1.42489 1.15511,2.58 2.58,2.58c1.42489,0 2.58,-1.15511 2.58,-2.58c0,-1.42489 -1.15511,-2.58 -2.58,-2.58z" fill="#ffffff"></path><g fill="#e74c3c"><path d="M130.72,77.9848c0,22.6352 -30.5988,42.7076 -44.72,50.7572c-14.1212,-8.0496 -44.72,-28.122 -44.72,-50.7572c0,-11.7304 5.676,-21.1044 14.448,-23.8736c1.6856,-0.516 3.4228,-0.7912 5.16,-0.7912c7.6024,0 15.824,5.504 22.5664,15.1188c0.5504,0.8084 1.5136,1.29 2.5456,1.29c1.032,0 1.9952,-0.4816 2.5456,-1.29c6.7252,-9.5804 15.0328,-15.0844 22.79,-15.0844c1.6856,0 3.3368,0.258 4.9364,0.7568c8.772,2.7692 14.448,12.1432 14.448,23.8736z"></path></g><path d="M60.89144,54.008c7.37364,0 15.39056,5.40424 21.98848,14.81952c0.69316,0.99932 1.85932,1.59444 3.12008,1.59444c1.26248,0 2.43036,-0.59856 3.11148,-1.58584c6.58932,-9.3998 14.69052,-14.792 22.22756,-14.792c1.60476,0 3.19232,0.24424 4.71968,0.72412c8.4882,2.6746 13.97156,11.78372 13.97156,23.20796c0.00172,22.10716 -29.87296,41.85964 -44.02856,49.97288c-14.1556,-8.11324 -44.03372,-27.86572 -44.03372,-49.97288c0,-11.42424 5.48508,-20.53336 13.97328,-23.20796c1.60648,-0.50396 3.27316,-0.76024 4.95016,-0.76024M60.89144,51.6c-1.91436,0 -3.81152,0.28724 -5.67428,0.87204c-9.5116,2.99796 -15.65716,13.00836 -15.65716,25.50416c0,23.43156 30.73812,43.79464 45.60408,52.26736c0.52632,0.301 1.15068,0.301 1.677,0c14.86596,-8.471 45.60236,-28.82892 45.59892,-52.26736c0,-12.49752 -6.14556,-22.5062 -15.65544,-25.50416c-1.78708,-0.56244 -3.60856,-0.83592 -5.4438,-0.83592c-8.42284,0 -17.14668,5.75512 -24.19868,15.81712c-0.258,0.37324 -0.69832,0.56072 -1.14036,0.56072c-0.44204,0 -0.88236,-0.18748 -1.14208,-0.56072c-6.98664,-9.9674 -15.62276,-15.85324 -23.9682,-15.85324z" fill="#472b29"></path><g fill="#472b29"><path d="M121.6212,67.08c-0.28896,0 -0.57276,-0.1462 -0.73616,-0.4128c-0.58308,-0.95976 -1.24528,-1.83352 -1.9694,-2.59548c-0.3268,-0.344 -0.31476,-0.88924 0.03096,-1.21604c0.34228,-0.3268 0.88752,-0.31476 1.21604,0.03096c0.8084,0.84968 1.54628,1.82148 2.193,2.88616c0.24596,0.40592 0.11524,0.93568 -0.28896,1.18164c-0.1376,0.086 -0.2924,0.12556 -0.44548,0.12556z"></path></g><g fill="#472b29"><path d="M86.0344,122.12c-0.15136,0 -0.33196,-0.03956 -0.4644,-0.11696c-11.76652,-6.837 -39.13,-24.78348 -39.13,-43.68972c0,-9.54084 4.4978,-17.09508 11.46036,-19.24336c1.26936,-0.39216 2.58344,-0.58996 3.90784,-0.58996c6.17136,0 13.03416,4.64916 18.83228,12.75552c1.20572,1.7028 3.21124,2.7176 5.36984,2.7176c2.17064,0 4.17444,-1.0148 5.37672,-2.71416c5.79468,-8.1098 12.65404,-12.75896 18.81852,-12.75896c1.32268,0 2.63332,0.1978 3.9044,0.58824c0.8256,0.25628 1.63228,0.5934 2.39768,1.00276c0.41796,0.2236 0.5762,0.74648 0.35088,1.16444c-0.2236,0.41968 -0.74992,0.5762 -1.16444,0.35088c-0.66736,-0.35776 -1.37084,-0.65188 -2.09152,-0.87548c-1.10424,-0.33884 -2.24804,-0.51084 -3.397,-0.51084c-5.60376,0 -11.95056,4.386 -17.41672,12.03484c-1.52392,2.15172 -4.0506,3.43828 -6.76476,3.43828c-2.72964,0 -5.26148,-1.28656 -6.7854,-3.44c-5.46788,-7.64712 -11.82328,-12.03312 -17.43048,-12.03312c-1.1524,0 -2.2962,0.172 -3.40044,0.51256c-6.22468,1.92124 -10.24776,8.83048 -10.24776,17.60076c0,17.79856 26.13368,35.09832 37.8572,41.96112c11.7132,-6.86108 37.8228,-24.16084 37.8228,-41.96112c0,-3.01344 -0.46612,-5.82736 -1.38976,-8.3592c-0.1634,-0.44548 0.06708,-0.93912 0.51428,-1.10252c0.44892,-0.16168 0.93912,0.06708 1.10252,0.51428c0.99072,2.72276 1.49296,5.73276 1.49296,8.94744c0,18.90796 -27.34112,36.85272 -39.09388,43.68972c-0.13244,0.0774 -0.28208,0.11696 -0.43172,0.11696z"></path></g></g></g></svg>