<svg xmlns="http://www.w3.org/2000/svg" x="0px" y="0px"
width="50" height="50"
viewBox="0 0 172 172"
style=" fill:#000000;"><g fill="none" fill-rule="nonzero" stroke="none" stroke-width="1" stroke-linecap="butt" stroke-linejoin="miter" stroke-miterlimit="10" stroke-dasharray="" stroke-dashoffset="0" font-family="none" font-weight="none" font-size="none" text-anchor="none" style="mix-blend-mode: normal"><path d="M0,172v-172h172v172z" fill="none"></path><g><path d="M22.36,46.44c-1.89986,0 -3.44,1.54014 -3.44,3.44c0,1.89986 1.54014,3.44 3.44,3.44c1.89986,0 3.44,-1.54014 3.44,-3.44c0,-1.89986 -1.54014,-3.44 -3.44,-3.44z" fill="#78a0cf"></path><path d="M132.44,20.64c-0.94993,0 -1.72,0.77007 -1.72,1.72c0,0.94993 0.77007,1.72 1.72,1.72c0.94993,0 1.72,-0.77007 1.72,-1.72c0,-0.94993 -0.77007,-1.72 -1.72,-1.72z" fill="#f1bc19"></path><path d="M86,22.36c-35.1474,0 -63.64,28.4926 -63.64,63.64c0,35.1474 28.4926,63.64 63.64,63.64c35.1474,0 63.64,-28.4926 63.64,-63.64c0,-35.1474 -28.4926,-63.64 -63.64,-63.64z" fill="#cee1f4"></path><path d="M142.76,18.92c-3.79972,0 -6.88,3.08028 -6.88,6.88c0,3.79972 3.08028,6.88 6.88,6.88c3.79972,0 6.88,-3.08028 6.88,-6.88c0,-3.79972 -3.08028,-6.88 -6.88,-6.88z" fill="#f1bc19"></path><path d="M149.64,37.84c-1.89986,0 -3.44,1.54014 -3.44,3.44c0,1.89986 1.54014,3.44 3.44,3.44c1.89986,0 3.44,-1.54014 3.44,-3.44c0,-1.89986 -1.54014,-3.44 -3.44,-3.44z" fill="#78a0cf"></path><path d="M139.32,127.28c-1.89986,0 -3.44,1.54014 -3.44,3.44c0,1.89986 1.54014,3.44 3.44,3.44c1.89986,0 3.44,-1.54014 3.44,-3.44c0,-1.89986 -1.54014,-3.44 -3.44,-3.44zM25.8,101.48c-3.79972,0 -6.88,3.08028 -6.88,6.88c0,3.79972 3.08028,6.88 6.88,6.88c3.79972,0 6.88,-3.08028 6.88,-6.88c0,-3.79972 -3.08028,-6.88 -6.88,-6.88z" fill="#fbcd59"></path><path d="M43,146.2c-1.89986,0 -3.44,1.54014 -3.44,3.44c0,1.89986 1.54014,3.44 3.44,3.44c1.89986,0 3.44,-1.54014 3.44,-3.44c0,-1.89986 -1.54014,-3.44 -3.44,-3.44z" fill="#78a0cf"></path><path d="M31.82,87.72c-2.37482,0 -4.3,1.92518 -4.3,4.3c0,2.37482 1.92518,4.3 4.3,4.3c2.37482,0 4.3,-1.92518 4.3,-4.3c0,-2.37482 -1.92518,-4.3 -4.3,-4.3z" fill="#ffffff"></path><path d="M36.12,113.52c-0.94993,0 -1.72,0.77007 -1.72,1.72c0,0.94993 0.77007,1.72 1.72,1.72c0.94993,0 1.72,-0.77007 1.72,-1.72c0,-0.94993 -0.77007,-1.72 -1.72,-1.72z" fill="#f1bc19"></path><path d="M137.6,56.76c-0.94993,0 -1.72,0.77007 -1.72,1.72c0,0.94993 0.77007,1.72 1.72,1.72c0.94993,0 1.72,-0.77007 1.72,-1.72c0,-0.94993 -0.77007,-1.72 -1.72,-1.72z" fill="#ffffff"></path><path d="M99.99048,54.59108c-12.85825,0 -23.28192,10.42367 -23.28192,23.28192c0,12.85825 10.42367,23.28192 23.28192,23.28192c12.85825,0 23.28192,-10.42367 23.28192,-23.28192c0,-12.85825 -10.42367,-23.28192 -23.28192,-23.28192z" fill="#f1bc19"></path><path d="M122.80112,83.42516c-0.05676,0 -0.11524,-0.00516 -0.17372,-0.0172c-0.46612,-0.09632 -0.7654,-0.5504 -0.66908,-1.01652c0.30272,-1.47232 0.4558,-2.9928 0.4558,-4.51844c0,-12.36336 -10.05856,-22.42192 -22.42192,-22.42192c-6.91784,0 -13.34376,3.12008 -17.62656,8.56388c-0.2924,0.37152 -0.8342,0.43688 -1.20744,0.14276c-0.37324,-0.29412 -0.43688,-0.83248 -0.14448,-1.20744c4.61304,-5.85832 11.52916,-9.2192 18.97848,-9.2192c13.31108,0 24.14192,10.83084 24.14192,24.14192c0,1.64088 -0.16512,3.2766 -0.4902,4.86416c-0.086,0.40764 -0.44376,0.688 -0.8428,0.688z" fill="#472b29"></path><g><path d="M106.02252,62.995c1.935,0.817 3.67736,2.00036 5.14108,3.46236" fill="#f1bc19"></path><path d="M111.1636,67.31736c-0.22016,0 -0.44032,-0.08428 -0.60716,-0.25112c-1.40868,-1.40524 -3.04612,-2.50948 -4.8676,-3.2766c-0.43688,-0.18404 -0.64328,-0.68972 -0.45752,-1.1266c0.18404,-0.4386 0.68972,-0.63984 1.1266,-0.45924c2.02616,0.85484 3.84764,2.0812 5.41284,3.6464c0.33712,0.33368 0.33712,0.88064 0.00172,1.21604c-0.16856,0.16684 -0.38872,0.25112 -0.60888,0.25112z" fill="#472b29"></path></g><g><path d="M87.00964,67.90388c2.96184,-3.76336 7.5594,-6.17824 12.7194,-6.17824" fill="#f1bc19"></path><path d="M87.00964,68.76388c-0.18576,0 -0.37324,-0.0602 -0.53148,-0.18404c-0.37324,-0.29412 -0.43688,-0.8342 -0.14448,-1.20744c3.25596,-4.13316 8.13732,-6.50504 13.39536,-6.50504c0.47472,0 0.86,0.38528 0.86,0.86c0,0.47472 -0.38528,0.86 -0.86,0.86c-4.72828,0 -9.116,2.13108 -12.04344,5.84972c-0.16856,0.21328 -0.4214,0.3268 -0.67596,0.3268z" fill="#472b29"></path></g><g><path d="M51.71008,112.316c-5.70352,0 -10.34408,-4.9536 -10.34408,-11.0424c0,-6.09052 4.64056,-11.04412 10.34408,-11.04412c0.74304,0 1.50672,0.09288 2.2704,0.27692l1.44136,0.34744l0.04472,-1.48264c0.33196,-11.13184 8.7806,-19.85052 19.2382,-19.85052c7.34956,0 13.9578,4.36708 17.243,11.39844l0.81356,1.7372l1.21088,-1.48608c2.61784,-3.21296 6.39668,-5.05508 10.36988,-5.05508c7.095,0 13.1064,5.90132 13.68776,13.43664l0.1118,1.46888l1.41728,-0.40076c0.90128,-0.25628 1.80084,-0.387 2.67116,-0.387c2.75028,0 5.33888,1.13864 7.28936,3.2078c1.9694,2.0898 3.053,4.87104 3.053,7.83632c0,6.0888 -4.64056,11.0424 -10.3458,11.0424h-70.51656z" fill="#48bed8"></path><path d="M74.70476,70.72296c6.87656,0 13.06684,4.1022 16.15252,10.70528l1.6254,3.47612l2.42348,-2.97388c2.38736,-2.93088 5.82736,-4.61304 9.43592,-4.61304c6.46892,0 11.954,5.41284 12.4872,12.32552l0.22704,2.93776l2.83456,-0.80668c0.7912,-0.22532 1.57896,-0.33884 2.34092,-0.33884c2.41488,0 4.69388,1.00448 6.41388,2.83112c1.75784,1.86448 2.7262,4.35332 2.72448,7.009c0,5.42488 -4.10048,9.8384 -9.1418,9.8384h-70.51656c-5.0396,0 -9.1418,-4.41352 -9.1418,-9.8384c0,-5.42488 4.10048,-9.8384 9.1418,-9.8384c0.64844,0 1.31752,0.08256 1.99004,0.24424l2.881,0.69316l0.08772,-2.96184c0.31304,-10.48168 8.23364,-18.68952 18.0342,-18.68952M74.70476,68.31496c-11.08712,0 -20.09304,9.35336 -20.44048,21.02012c-0.82388,-0.1978 -1.67528,-0.3096 -2.55248,-0.3096c-6.37948,0 -11.5498,5.48336 -11.5498,12.2464c0,6.76476 5.17032,12.2464 11.5498,12.2464c0.74132,0 69.77524,0 70.51828,0c6.37948,0 11.5498,-5.48336 11.5498,-12.2464c0.00172,-6.76476 -5.1686,-12.2464 -11.54636,-12.2464c-1.0406,0 -2.04164,0.15824 -3.0014,0.43172c-0.6278,-8.14248 -7.04512,-14.54776 -14.88832,-14.54776c-4.52016,0 -8.56216,2.13624 -11.30384,5.49884c-3.34712,-7.16036 -10.28904,-12.09332 -18.3352,-12.09332z" fill="#472b29"></path></g><g fill="#472b29"><path d="M104.06,106.64h-5.16c-0.47472,0 -0.86,-0.38528 -0.86,-0.86c0,-0.47472 0.38528,-0.86 0.86,-0.86h5.16c0.47472,0 0.86,0.38528 0.86,0.86c0,0.47472 -0.38528,0.86 -0.86,0.86z"></path></g><g fill="#472b29"><path d="M92.02,106.64h-39.56c-0.47472,0 -0.86,-0.38528 -0.86,-0.86c0,-0.47472 0.38528,-0.86 0.86,-0.86h39.56c0.47472,0 0.86,0.38528 0.86,0.86c0,0.47472 -0.38528,0.86 -0.86,0.86z"></path></g><g fill="#472b29"><path d="M116.1,106.64h-6.88c-0.47472,0 -0.86,-0.38528 -0.86,-0.86c0,-0.47472 0.38528,-0.86 0.86,-0.86h6.88c0.47472,0 0.86,0.38528 0.86,0.86c0,0.47472 -0.38528,0.86 -0.86,0.86z"></path></g><g fill="#472b29"><path d="M100.62,49.88c-0.47472,0 -0.86,-0.38528 -0.86,-0.86v-10.32c0,-0.47472 0.38528,-0.86 0.86,-0.86c0.47472,0 0.86,0.38528 0.86,0.86v10.32c0,0.47472 -0.38528,0.86 -0.86,0.86z"></path></g><g fill="#472b29"><path d="M140.18,82.56h-10.32c-0.47472,0 -0.86,-0.38528 -0.86,-0.86c0,-0.47472 0.38528,-0.86 0.86,-0.86h10.32c0.47472,0 0.86,0.38528 0.86,0.86c0,0.47472 -0.38528,0.86 -0.86,0.86z"></path></g><g fill="#472b29"><path d="M120.55996,59.6582c-0.22016,0 -0.44032,-0.08428 -0.60888,-0.25112c-0.3354,-0.3354 -0.3354,-0.88064 0,-1.21604l7.36848,-7.36848c0.3354,-0.3354 0.88064,-0.3354 1.21604,0c0.3354,0.3354 0.3354,0.88064 0,1.21604l-7.36848,7.36848c-0.16684,0.16684 -0.387,0.25112 -0.60716,0.25112z"></path></g><g fill="#472b29"><path d="M82.08184,57.57356c-0.22016,0 -0.44032,-0.08428 -0.60888,-0.25112l-7.36848,-7.36676c-0.3354,-0.3354 -0.3354,-0.88064 0,-1.21604c0.3354,-0.3354 0.88064,-0.3354 1.21604,0l7.36848,7.36676c0.3354,0.3354 0.3354,0.88064 0,1.21604c-0.16684,0.16684 -0.387,0.25112 -0.60716,0.25112z"></path></g></g></g></svg>
