<svg id="Capa_1" enable-background="new 0 0 511.501 511.501" height="512" viewBox="0 0 511.501 511.501" width="512" xmlns="http://www.w3.org/2000/svg"><g><g><path d="m113.45 391.023-10.458-108.693-1.505-16.55-46.81-1.105-1.958 17.655-10.459 108.693-3 19.403h79.363z" fill="#efedef"/><path d="m113.45 391.023-1.925-20h-34.691c-5.683 0-10.13-4.896-9.586-10.552l4.756-49.432c.475-4.938 4.625-8.708 9.586-8.708h23.326l-1.925-20-1.504-16.55h-22.862l-23.948-1.105-1.958 17.655-10.459 108.692-3 19.404h22.048 57.315z" fill="#e5e1e5"/><path d="m469.013 391.023-10.459-108.693-1.504-16.55-46.81-1.105-1.959 17.655-10.458 108.693-3.001 19.403h79.364z" fill="#efedef"/><path d="m469.013 391.023-1.925-20h-34.692c-5.683 0-10.13-4.896-9.586-10.552l4.756-49.432c.475-4.938 4.625-8.708 9.586-8.708h23.326l-1.925-20-1.504-16.55h-22.862l-23.948-1.105-1.958 17.655-10.459 108.693-3 19.404h22.048 57.315z" fill="#e5e1e5"/><path d="m332.61 57.463h-22.336c-4.884 0-8.843 3.959-8.843 8.843v21.94h-24.511l-5.044-23.775c-.867-4.086-4.474-7.008-8.651-7.008h-13.949c-4.177 0-7.784 2.922-8.651 7.008l-5.044 23.775h-24.511v-21.94c0-4.884-3.959-8.843-8.843-8.843h-22.336c-4.884 0-8.843 3.959-8.843 8.843v56.495c0 12.05 9.769 21.819 21.819 21.819v21.34h121.403l5.364-21.34c12.05 0 21.819-9.769 21.819-21.819v-56.495c0-4.884-3.959-8.843-8.843-8.843z" fill="#baafb9"/><path d="m332.61 57.463h-22.336c-4.884 0-8.843 3.959-8.843 8.843v21.94h-24.511l-5.044-23.775c-.867-4.086-4.474-7.008-8.651-7.008h-13.949c-4.177 0-7.784 2.922-8.651 7.008l-5.044 23.775h-24.511v-21.94c0-4.884-3.959-8.843-8.843-8.843h-22.336c-4.884 0-8.843 3.959-8.843 8.843v56.495c0 12.05 9.769 21.819 21.819 21.819v21.34h121.403l5.364-21.34c12.05 0 21.819-9.769 21.819-21.819v-56.495c0-4.884-3.959-8.843-8.843-8.843z" fill="#a79ba7"/><g><path d="m320.921 326.894-3.18-165.434h-122.981l-3.18 165.434v51.249l131.837-2.257z" fill="#b5adb6"/></g><g><path d="m320.921 326.894-.385-20h-75.131c-7.492 0-13.517-6.164-13.347-13.654l1.284-56.387c.374-16.429 13.8-29.552 30.233-29.552h55.046l-.881-45.84h-83.269-39.711l-3.18 165.433v51.249l131.836-2.257z" fill="#a79ba7"/><path d="m334.412 144.621c6.007 0 10.878 4.87 10.878 10.878v20.925c0 6.007-4.87 10.878-10.878 10.878h-156.323c-6.007 0-10.878-4.87-10.878-10.878v-20.925c0-6.007 4.87-10.878 10.878-10.878z" fill="#b5adb6"/><path d="m359.08 353.374c0-14.624-11.855-26.48-26.48-26.48h-152.699c-14.624 0-26.48 11.855-26.48 26.48v72.013h205.659z" fill="#b5adb6"/><path d="m485.171 422.531-6.792-24.393c-1.171-4.205-5.001-7.115-9.366-7.115h-71.19c-4.365 0-8.195 2.909-9.366 7.115l-6.792 24.393v12.733h104.125z" fill="#efedef"/><path d="m372.592 454.039h131.409v-20.236c0-6.225-5.047-11.272-11.272-11.272h-111.592c-4.719 0-8.544 3.825-8.544 8.544v22.964z" fill="#e5e1e5"/><path d="m129.609 422.531-6.792-24.393c-1.171-4.205-5.001-7.115-9.366-7.115h-71.191c-4.365 0-8.195 2.909-9.366 7.115l-6.792 24.393v12.733h104.126z" fill="#efedef"/><path d="m138.909 454.039h-131.409v-20.236c0-6.225 5.047-11.272 11.272-11.272h111.633c4.697 0 8.504 3.807 8.504 8.504z" fill="#e5e1e5"/><path d="m381.664 454.039v-45.309c0-9.78-7.928-17.708-17.708-17.708h-215.411c-9.78 0-17.708 7.928-17.708 17.708v45.308h250.827z" fill="#a79ba7"/><circle cx="433.418" cy="208.732" fill="#e5e1e5" r="42.318"/><path d="m471.34 249.23h-75.844c-4.438 0-8.036 3.598-8.036 8.036v17.028c0 4.438 3.598 8.036 8.036 8.036h75.844c4.438 0 8.036-3.598 8.036-8.036v-17.028c0-4.438-3.598-8.036-8.036-8.036z" fill="#efedef"/><path d="m137.167 422.531h-111.593" fill="#a79ba7"/><circle cx="77.855" cy="208.732" fill="#e5e1e5" r="42.318"/><path d="m115.778 249.23h-75.845c-4.438 0-8.036 3.598-8.036 8.036v17.028c0 4.438 3.598 8.036 8.036 8.036h75.844c4.438 0 8.036-3.598 8.036-8.036v-17.028c0-4.438-3.597-8.036-8.035-8.036z" fill="#efedef"/></g></g><path d="m492.729 415.031h-1.86l-5.264-18.905c-1.409-5.06-5.032-9.076-9.636-11.121l-5.012-52.089c-.397-4.123-4.059-7.145-8.185-6.747-4.123.396-7.144 4.061-6.747 8.184l4.732 49.17h-54.677l9.016-93.692h36.646l1.209 12.56c.374 3.879 3.639 6.782 7.457 6.782.24 0 .483-.012.728-.035 4.123-.396 7.144-4.061 6.747-8.184l-1.07-11.123h4.529c8.566 0 15.536-6.969 15.536-15.536v-17.028c0-8.271-6.502-15.033-14.66-15.492 6.986-8.686 11.019-19.642 11.019-31.222 0-27.47-22.349-49.818-49.818-49.818s-49.819 22.348-49.819 49.817c0 11.58 4.033 22.536 11.019 31.222-8.158.458-14.66 7.221-14.66 15.492v17.028c0 8.567 6.97 15.536 15.536 15.536h4.53l-9.158 95.175c-3.314 1.472-6.118 3.965-7.956 7.135-4.082-4.657-9.843-7.807-16.332-8.481v-30.286c0-18.737-15.243-33.98-33.979-33.98h-4.349l-1.603-70.334c-.093-4.083-3.432-7.329-7.495-7.329-.058 0-.115 0-.174.002-4.141.094-7.422 3.528-7.327 7.669l1.595 69.993h-113.994l2.838-124.593h108.319l.516 22.638c.093 4.083 3.432 7.329 7.495 7.329.058 0 .115 0 .174-.002 4.141-.094 7.422-3.528 7.327-7.669l-.508-22.296h8.999c10.133 0 18.377-8.244 18.377-18.377v-20.925c0-6.774-3.694-12.689-9.164-15.876 3.351-4.766 5.327-10.565 5.327-16.821v-56.496c0-9.012-7.331-16.343-16.343-16.343h-22.336c-9.012 0-16.344 7.332-16.344 16.343v14.44h-10.935l-3.783-17.831c-1.591-7.506-8.314-12.953-15.987-12.953h-13.949c-7.672 0-14.395 5.447-15.987 12.952l-3.783 17.832h-10.936v-14.44c0-9.012-7.332-16.343-16.343-16.343h-22.336c-9.012 0-16.343 7.332-16.343 16.343v56.496c0 6.256 1.976 12.055 5.327 16.821-5.47 3.187-9.164 9.102-9.164 15.876v20.925c0 10.133 8.244 18.377 18.377 18.377h8.999l-2.838 124.593h-4.349c-18.737 0-33.98 15.243-33.98 33.98v30.286c-6.822.709-12.841 4.15-16.947 9.206-1.816-3.512-4.779-6.28-8.34-7.861l-7.425-77.167-1.733-18.007h4.53c8.567 0 15.536-6.969 15.536-15.536v-17.028c0-8.271-6.501-15.033-14.66-15.492 6.986-8.686 11.019-19.642 11.019-31.222 0-27.47-22.348-49.818-49.818-49.818s-49.818 22.348-49.818 49.818c0 11.58 4.033 22.536 11.019 31.222-8.158.459-14.659 7.221-14.659 15.492v17.028c0 8.567 6.969 15.536 15.536 15.536h4.53l-9.158 95.174c-4.604 2.045-8.227 6.061-9.636 11.121l-5.264 18.905h-1.861c-10.35 0-18.771 8.421-18.771 18.771v20.236c0 4.142 3.358 7.5 7.5 7.5h496.501c4.143 0 7.5-3.358 7.5-7.5v-20.236c0-10.35-8.42-18.771-18.772-18.771zm-59.312-239.297c19.199 0 34.818 15.619 34.818 34.818 0 13.25-7.565 25.318-19.374 31.178h-30.887c-11.809-5.86-19.374-17.927-19.374-31.178 0-19.198 15.619-34.818 34.817-34.818zm-38.458 98.56v-17.028c0-.295.24-.536.536-.536h20.6.041 34.427c.009 0 .018.002.027.002.013 0 .025-.002.038-.002h20.712c.296 0 .536.241.536.536v17.028c0 .295-.24.536-.536.536h-63.08c-.019 0-.037 0-.056 0h-12.708c-.296 0-.537-.241-.537-.536zm-220.248-97.871v-20.925c0-1.862 1.515-3.377 3.377-3.377h60.46c4.142 0 7.5-3.358 7.5-7.5s-3.358-7.5-7.5-7.5h-45.682c-7.896 0-14.319-6.423-14.319-14.319v-56.496c0-.741.603-1.343 1.343-1.343h22.336c.741 0 1.343.603 1.343 1.343v21.94c0 4.142 3.358 7.5 7.5 7.5h24.511c3.542 0 6.602-2.479 7.337-5.943l5.044-23.776c.131-.617.683-1.064 1.313-1.064h13.949c.631 0 1.183.447 1.313 1.065l5.044 23.775c.735 3.465 3.795 5.943 7.337 5.943h24.511c4.143 0 7.5-3.358 7.5-7.5v-21.94c0-.741.603-1.343 1.344-1.343h22.336c.74 0 1.343.603 1.343 1.343v56.496c0 7.896-6.423 14.319-14.318 14.319h-45.682c-4.143 0-7.5 3.358-7.5 7.5s3.357 7.5 7.5 7.5h60.46c1.862 0 3.377 1.515 3.377 3.377v20.925c0 1.862-1.515 3.377-3.377 3.377h-156.323c-1.862 0-3.377-1.515-3.377-3.377zm220.971 223.726c.267-.957 1.146-1.626 2.14-1.626h.009.01 71.152.01.009c.994 0 1.874.669 2.14 1.626l4.144 14.882h-83.759zm-355.335 0c.267-.957 1.147-1.626 2.141-1.626h.009.01 71.152.01.009c.994 0 1.874.669 2.141 1.626l4.144 14.882h-83.76zm37.736-224.415c19.199 0 34.818 15.619 34.818 34.818 0 13.251-7.565 25.319-19.375 31.178h-30.886c-11.81-5.86-19.375-17.927-19.375-31.178 0-19.198 15.619-34.818 34.818-34.818zm-38.458 98.56v-17.028c0-.295.241-.536.536-.536h75.844c.295 0 .536.241.536.536v17.028c0 .295-.241.536-.536.536h-75.844c-.295 0-.536-.241-.536-.536zm56.782 15.536 1.871 19.443 7.144 74.249h-54.678l9.016-93.692zm-81.407 143.972c0-2.08 1.692-3.771 3.771-3.771h7.558 97.007v16.508h-108.336zm357.592 12.737h-233.683-.572v-37.809c0-5.629 4.579-10.208 10.208-10.208h27.055c4.142 0 7.5-3.358 7.5-7.5s-3.358-7.5-7.5-7.5h-14.678v-30.149c0-10.466 8.514-18.98 18.98-18.98h152.698c10.466 0 18.979 8.514 18.979 18.98v30.149h-144.017c-4.142 0-7.5 3.358-7.5 7.5s3.358 7.5 7.5 7.5h156.395c5.629 0 10.208 4.579 10.208 10.208v37.808h-1.573zm123.909 0h-107.336v-16.508h96.007 7.558c2.08 0 3.772 1.692 3.772 3.771v12.737z"/></g></svg>