<svg id="Capa_1" enable-background="new 0 0 511.904 511.904" height="512" viewBox="0 0 511.904 511.904" width="512" xmlns="http://www.w3.org/2000/svg"><g><path d="m206.809 346.535c1.698 0 3.407-.574 4.811-1.75 3.177-2.659 3.595-7.389.936-10.564-9.229-11.023-16.413-23.365-21.351-36.684-1.439-3.885-5.759-5.864-9.64-4.425-3.884 1.439-5.864 5.756-4.425 9.64 5.535 14.93 13.581 28.757 23.915 41.098 1.484 1.772 3.611 2.685 5.754 2.685z"/><path d="m183.322 212.814c.952.402 1.94.593 2.914.593 2.924 0 5.703-1.722 6.912-4.585 6.311-14.945 15.526-28.351 27.393-39.843l20.138-19.503c2.976-2.882 3.052-7.63.17-10.605s-7.628-3.052-10.605-.17l-20.138 19.503c-13.322 12.903-23.677 27.971-30.775 44.784-1.613 3.816.174 8.215 3.991 9.826z"/><path d="m265.284 162.537c-2.883-2.975-7.629-3.051-10.605-.17l-20.013 19.382c-20.467 19.823-32.119 47.08-31.967 74.783.153 27.659 11.184 53.494 31.061 72.745l98.411 95.313c1.457 1.41 3.338 2.112 5.217 2.112 1.96 0 3.918-.764 5.389-2.282 2.882-2.976 2.806-7.724-.17-10.605l-86.737-84.006h51.178l-9.244 8.953c-2.976 2.882-3.052 7.63-.17 10.605 1.472 1.519 3.429 2.282 5.389 2.282 1.879 0 3.761-.702 5.217-2.112l20.918-20.26c19.877-19.251 30.907-45.086 31.061-72.747.014-2.58-.075-5.196-.263-7.774 0-.002-.001-.004-.001-.007-1.835-25.182-13.093-48.977-31.703-67l-76.159-73.761c-2.978-2.881-7.726-2.805-10.605.17-2.882 2.976-2.806 7.724.17 10.605l65.391 63.332h-51.178l9.245-8.953c2.973-2.881 3.05-7.629.168-10.605zm-24.58 34.559h81.489c7.681 8.524 13.611 18.271 17.522 28.73h-116.477c3.917-10.446 9.829-20.23 17.466-28.73zm104.29 52.749v.002c.16 2.19.235 4.412.224 6.603-.027 4.959-.489 9.844-1.32 14.628h-124.879c-.831-4.784-1.293-9.668-1.32-14.628-.029-5.247.444-10.476 1.384-15.624h124.753c.538 2.978.937 5.985 1.158 9.019zm-22.693 64.964h-81.686c-7.781-8.457-13.723-18.189-17.598-28.73h116.881c-3.874 10.541-9.816 20.273-17.597 28.73z"/><path d="m376.248 479.904c-4.143 0-7.5 3.357-7.5 7.5 0 5.238-4.262 9.5-9.5 9.5s-9.5-4.262-9.5-9.5v-3.761c0-9.903-4.08-19.533-11.192-26.42l-104.085-100.806c-2.978-2.882-7.726-2.805-10.605.17-2.882 2.976-2.806 7.724.17 10.605l75.012 72.649h-35.178l1.247-1.208c2.976-2.882 3.052-7.63.17-10.605-2.883-2.975-7.631-3.051-10.605-.17l-30.32 29.365c-7.113 6.889-11.192 16.519-11.192 26.421v3.76c0 5.238-4.262 9.5-9.5 9.5s-9.5-4.262-9.5-9.5v-3.76c0-15.018 6.187-29.622 16.974-40.068l29.539-28.609c2.976-2.882 3.052-7.63.17-10.605s-7.63-3.052-10.605-.17l-29.539 28.609c-13.688 13.257-21.538 31.788-21.538 50.844v3.76c0 13.51 10.99 24.5 24.5 24.5 10.563 0 19.585-6.719 23.019-16.107h109.542c3.434 9.389 12.456 16.107 23.019 16.107 13.51 0 24.5-10.99 24.5-24.5-.003-4.143-3.361-7.501-7.503-7.501zm-127.866-25.062h66.154l13.585 13.157c3.524 3.413 5.768 7.967 6.414 12.798h-106.153c.646-4.831 2.89-9.384 6.415-12.798z"/><path d="m336.204 83.409-13.969 13.528c-2.976 2.882-3.052 7.63-.17 10.605 1.472 1.519 3.429 2.282 5.389 2.282 1.879 0 3.76-.702 5.217-2.112l13.969-13.528c2.976-2.882 3.052-7.63.17-10.605-2.883-2.974-7.629-3.051-10.606-.17z"/><path d="m218.694 96.524c2.977 2.881 7.725 2.805 10.605-.17 2.882-2.976 2.806-7.724-.17-10.605l-17.986-17.42c-10.787-10.446-16.974-25.051-16.974-40.068v-3.761c0-5.238 4.262-9.5 9.5-9.5s9.5 4.262 9.5 9.5v3.761c0 9.903 4.08 19.533 11.192 26.421l118.014 114.298c20.779 20.124 33.299 45.858 36.203 74.421.394 3.863 3.651 6.742 7.453 6.742.253 0 .51-.014.768-.039 4.121-.42 7.122-4.1 6.703-8.221-3.269-32.127-17.339-61.063-40.691-83.679l-88.943-86.142h35.179l-1.248 1.209c-2.976 2.882-3.052 7.63-.17 10.605 1.472 1.519 3.429 2.282 5.389 2.282 1.879 0 3.761-.702 5.217-2.112l30.32-29.365c7.113-6.889 11.192-16.519 11.192-26.421v-3.76c0-5.238 4.262-9.5 9.5-9.5s9.5 4.262 9.5 9.5v3.761c0 4.143 3.357 7.5 7.5 7.5s7.5-3.357 7.5-7.5v-3.761c0-13.51-10.99-24.5-24.5-24.5-10.563 0-19.585 6.719-23.019 16.107h-109.54c-3.433-9.388-12.456-16.107-23.019-16.107-13.51 0-24.5 10.99-24.5 24.5v3.761c0 19.056 7.851 37.587 21.538 50.844zm95.841-39.461h-66.155l-13.584-13.156c-3.524-3.413-5.768-7.968-6.414-12.799h106.152c-.646 4.831-2.89 9.385-6.415 12.799z"/><path d="m392.737 275.715c.613-4.097-2.21-7.914-6.307-8.527-4.088-.616-7.914 2.209-8.527 6.307-3.955 26.415-16.937 51.425-36.552 70.423l-19.112 18.511c-2.976 2.882-3.052 7.63-.17 10.605 1.472 1.519 3.429 2.282 5.389 2.282 1.879 0 3.761-.702 5.217-2.112l19.112-18.511c21.967-21.277 36.51-49.325 40.95-78.978z"/><path d="m383.748 49.569v-3.07c0-4.143-3.357-7.5-7.5-7.5s-7.5 3.357-7.5 7.5v3.07c-.873.303-1.724.652-2.546 1.054l-2.171-2.171c-2.93-2.928-7.678-2.928-10.607 0-2.929 2.93-2.929 7.678 0 10.607l2.171 2.171c-.401.822-.751 1.672-1.054 2.545h-3.071c-4.143 0-7.5 3.357-7.5 7.5s3.357 7.5 7.5 7.5h3.07c.303.873.653 1.725 1.054 2.547l-2.17 2.17c-2.93 2.929-2.93 7.678-.001 10.606 1.465 1.465 3.384 2.197 5.304 2.197 1.919 0 3.839-.732 5.303-2.196l2.171-2.171c.822.402 1.673.752 2.547 1.054v3.071c0 4.143 3.357 7.5 7.5 7.5s7.5-3.357 7.5-7.5v-3.071c.873-.302 1.724-.652 2.547-1.054l2.171 2.171c1.465 1.464 3.384 2.196 5.303 2.196s3.839-.732 5.304-2.197c2.929-2.929 2.929-7.678-.001-10.606l-2.17-2.17c.401-.822.752-1.674 1.054-2.547h3.07c4.143 0 7.5-3.357 7.5-7.5s-3.357-7.5-7.5-7.5h-3.071c-.302-.873-.652-1.724-1.054-2.545l2.171-2.171c2.929-2.93 2.929-7.678 0-10.607-2.93-2.928-7.678-2.928-10.607 0l-2.171 2.171c-.823-.401-1.674-.751-2.546-1.054zm.47 21.707c0 4.396-3.575 7.972-7.971 7.972s-7.971-3.576-7.971-7.972 3.575-7.971 7.971-7.971 7.971 3.576 7.971 7.971z"/><path d="m401.025 436.479h-3.071c-.302-.873-.652-1.724-1.054-2.545l2.171-2.171c2.929-2.93 2.929-7.678 0-10.607-2.93-2.928-7.678-2.928-10.607 0l-2.171 2.171c-.822-.402-1.673-.751-2.546-1.054v-3.07c0-4.143-3.357-7.5-7.5-7.5s-7.5 3.357-7.5 7.5v3.07c-.873.303-1.724.652-2.546 1.054l-2.171-2.171c-2.93-2.928-7.678-2.928-10.607 0-2.929 2.93-2.929 7.678 0 10.607l2.171 2.171c-.401.822-.751 1.672-1.054 2.545h-3.071c-4.143 0-7.5 3.357-7.5 7.5s3.357 7.5 7.5 7.5h3.071c.302.873.652 1.724 1.054 2.545l-2.171 2.171c-2.929 2.93-2.929 7.678 0 10.607 1.465 1.464 3.385 2.196 5.304 2.196s3.839-.732 5.304-2.196l2.171-2.171c.822.402 1.673.751 2.546 1.054v3.07c0 4.143 3.357 7.5 7.5 7.5s7.5-3.357 7.5-7.5v-3.07c.873-.303 1.724-.653 2.546-1.054l2.171 2.171c1.465 1.464 3.385 2.196 5.304 2.196s3.839-.732 5.304-2.196c2.929-2.93 2.929-7.678 0-10.607l-2.171-2.171c.401-.822.751-1.672 1.054-2.545h3.071c4.143 0 7.5-3.357 7.5-7.5s-3.36-7.5-7.502-7.5zm-16.807 7.5c0 4.396-3.575 7.971-7.971 7.971s-7.971-3.575-7.971-7.971 3.575-7.971 7.971-7.971 7.971 3.576 7.971 7.971z"/><path d="m179.761 279.654-5.253-5.252c1.528-2.545 2.697-5.328 3.44-8.279h7.417c4.143 0 7.5-3.357 7.5-7.5s-3.357-7.5-7.5-7.5h-7.417c-.742-2.951-1.912-5.734-3.44-8.279l5.253-5.252c2.929-2.93 2.929-7.678 0-10.607-2.93-2.928-7.678-2.928-10.607 0l-5.252 5.252c-2.545-1.528-5.328-2.697-8.279-3.439v-7.417c0-4.143-3.357-7.5-7.5-7.5s-7.5 3.357-7.5 7.5v7.417c-2.951.742-5.734 1.912-8.279 3.439l-5.253-5.252c-2.93-2.928-7.678-2.928-10.607 0-2.929 2.93-2.929 7.678 0 10.607l5.253 5.253c-1.527 2.545-2.697 5.327-3.439 8.278h-7.418c-4.143 0-7.5 3.357-7.5 7.5s3.357 7.5 7.5 7.5h7.418c.742 2.951 1.912 5.733 3.439 8.278l-5.253 5.253c-2.929 2.93-2.929 7.678 0 10.607 1.465 1.464 3.385 2.196 5.304 2.196s3.839-.732 5.304-2.196l5.253-5.253c2.545 1.527 5.327 2.697 8.278 3.439v7.418c0 4.143 3.357 7.5 7.5 7.5s7.5-3.357 7.5-7.5v-7.418c2.951-.743 5.733-1.912 8.278-3.439l5.253 5.253c1.465 1.464 3.385 2.196 5.304 2.196s3.839-.732 5.304-2.196c2.928-2.929 2.928-7.677-.001-10.607zm-15.884-21.031c0 8.687-7.067 15.754-15.755 15.754-8.687 0-15.754-7.067-15.754-15.754 0-8.688 7.067-15.755 15.754-15.755 8.688 0 15.755 7.068 15.755 15.755z"/></g></svg>