<svg height="512" viewBox="0 0 64 64" width="512" xmlns="http://www.w3.org/2000/svg"><g id="outline"><path d="m32 2a30 30 0 1 0 30 30 30.034 30.034 0 0 0 -30-30zm0 58a28 28 0 1 1 28-28 28.032 28.032 0 0 1 -28 28z"/><path d="m32 6v2a23.939 23.939 0 0 1 21.12 12.477l1.76-.954a25.942 25.942 0 0 0 -22.88-13.523z"/><path d="m8 32h-2a26.029 26.029 0 0 0 26 26v-2a24.028 24.028 0 0 1 -24-24z"/><path d="m13.592 36.807-3.192 2.393 1.2 1.6 3.054-2.291a7.106 7.106 0 0 0 1.476 1.319l-1.93 2.572 1.6 1.2 2.175-2.9a6.987 6.987 0 0 0 2.025.3v3h2v-3.3a6.958 6.958 0 0 0 2.184-1.1l2.109 2.109 1.414-1.414-2.107-2.111a6.964 6.964 0 0 0 1.046-1.993l3.114.779.484-1.94-3.253-.813c0-.073.011-.144.011-.217v-1h3v-2h-3.002v-2h1a6.956 6.956 0 0 0 3.97-1.242l1.2 1.8 1.664-1.11-1.378-2.067a6.99 6.99 0 0 0 1.249-2.381h2.295v-2h-2a6.965 6.965 0 0 0 -.515-2.624l2.962-1.476-.894-1.79-3.082 1.541a7.06 7.06 0 0 0 -1.6-1.474l1.929-2.577-1.6-1.2-2.175 2.9a6.987 6.987 0 0 0 -2.025-.3h-1v-3h-2v3.051a12.952 12.952 0 0 0 -2.62.472l-1.48-2.97-1.79.894 1.4 2.791a12.969 12.969 0 0 0 -2.393 1.456l-2.4-2.4-1.414 1.414 2.322 2.322a13.087 13.087 0 0 0 -1.483 1.857l-2.577-1.718-1.11 1.664 2.722 1.815a12.976 12.976 0 0 0 -.8 2.353h-3.377v2h3.051c-.026.331-.051.662-.051 1v1h-3v2h3v2h-3v2h3.08a6.948 6.948 0 0 0 .512 1.806zm1.408-8.807a11.013 11.013 0 0 1 11-11h2a5 5 0 0 1 0 10h-2a1 1 0 0 0 -1 1v6a5 5 0 0 1 -10 0z"/><path d="m20 37a3 3 0 0 0 3-3v-6a3 3 0 0 1 3-3h2a3 3 0 0 0 0-6h-2a9.01 9.01 0 0 0 -9 9v6a3 3 0 0 0 3 3zm-1-9a7.009 7.009 0 0 1 7-7h2a1 1 0 0 1 0 2h-2a5.006 5.006 0 0 0 -5 5v6a1 1 0 0 1 -2 0z"/><path d="m51.6 27.816 2.109-2.109-1.414-1.414-2.111 2.107a6.958 6.958 0 0 0 -2.184-1.1v-3.3h-2v3a6.969 6.969 0 0 0 -2.754.566l-1.414-2.121-1.664 1.11 1.371 2.056a7.042 7.042 0 0 0 -1.524 1.778l-2.568-1.284-.894 1.79 2.681 1.34a7 7 0 0 0 -.234 1.765v1h-3v2h3v2h-1a6.967 6.967 0 0 0 -4.378 1.546l-2.067-1.378-1.11 1.664 1.8 1.2a6.945 6.945 0 0 0 -1.165 2.968h-2.08v2h2.08a6.9 6.9 0 0 0 .435 1.624l-2.962 1.481.894 1.79 3.082-1.541a7.033 7.033 0 0 0 2.159 1.81l-1.52 2.281 1.664 1.11 1.8-2.692a6.98 6.98 0 0 0 1.368.137h1v3h2v-3.051a12.952 12.952 0 0 0 2.62-.472l1.485 2.97 1.79-.894-1.4-2.791a12.953 12.953 0 0 0 1.821-1.028l1.973 1.973 1.414-1.414-1.826-1.826a13.16 13.16 0 0 0 1.668-1.9l1.9 1.264 1.11-1.664-1.966-1.31a12.889 12.889 0 0 0 1.048-2.857h2.363v-2h-2.051c.026-.331.051-.662.051-1v-2h2v-2h-2v-2h3v-2h-3.3a6.958 6.958 0 0 0 -1.1-2.184zm-.6 10.184a11.013 11.013 0 0 1 -11 11h-2a5 5 0 0 1 0-10h2a1 1 0 0 0 1-1v-6a5 5 0 0 1 10 0z"/><path d="m46 29a3 3 0 0 0 -3 3v6a3 3 0 0 1 -3 3h-2a3 3 0 0 0 0 6h2a9.01 9.01 0 0 0 9-9v-6a3 3 0 0 0 -3-3zm1 9a7.009 7.009 0 0 1 -7 7h-2a1 1 0 0 1 0-2h2a5.006 5.006 0 0 0 5-5v-6a1 1 0 0 1 2 0z"/><path d="m28 6h2v2h-2z"/><path d="m34 56h2v2h-2z"/><path d="m19 47h2v2h-2z"/><path d="m24 50h2v2h-2z"/><path d="m40 13h2v2h-2z"/><path d="m39 19h2v2h-2z"/><path d="m45 17h2v2h-2z"/></g></svg>