<?xml version="1.0" encoding="iso-8859-1"?>
<!-- Generator: Adobe Illustrator 16.0.0, SVG Export Plug-In . SVG Version: 6.00 Build 0)  -->
<!DOCTYPE svg PUBLIC "-//W3C//DTD SVG 1.1//EN" "http://www.w3.org/Graphics/SVG/1.1/DTD/svg11.dtd">
<svg version="1.1" id="Capa_1" xmlns="http://www.w3.org/2000/svg" xmlns:xlink="http://www.w3.org/1999/xlink" x="0px" y="0px"
	 width="63.086px" height="63.086px" viewBox="0 0 63.086 63.086" style="enable-background:new 0 0 63.086 63.086;"
	 xml:space="preserve">
<g>
	<g>
		<path d="M53.541,17.285c-0.515,0.256-1.133,0.042-1.399-0.467c-0.847-1.62-1.831-3.134-2.931-4.528
			c-0.355-0.452-0.195-0.843,0.375-0.927c5.183-0.771,8.51-3.754,9.854-5.207c0.392-0.42,0.325-1.101-0.105-1.479
			c-0.429-0.378-1.187-0.452-1.741-0.302c-0.765,0.206-2.068,0.417-4.198,0.417c-1.503,0-3.245-0.105-5.179-0.313
			c-1.854-0.2-3.66-0.301-5.366-0.301c-1.086,0-2.073,0.041-2.969,0.107c-0.573,0.042-1.469-0.083-2.011-0.274
			c-2.347-0.823-4.839-1.27-7.422-1.27c-2.408,0-4.732,0.392-6.937,1.111c-0.546,0.179-1.276,0.336-1.637,0.33
			c-0.213-0.002-0.43-0.005-0.653-0.005c-1.707,0-3.512,0.101-5.367,0.301c-1.932,0.208-3.674,0.313-5.178,0.313
			c-2.072,0-3.359-0.198-4.123-0.387C5.997,4.265,5.219,4.351,4.77,4.711C4.321,5.07,4.241,5.732,4.631,6.155
			c1.092,1.178,3.492,3.367,7.13,4.562c0.547,0.179,0.687,0.64,0.321,1.083c-1.06,1.283-2.017,2.674-2.857,4.162
			c-0.283,0.501-0.914,0.707-1.428,0.451L6.025,15.53c-2.06-1.028-4.561-0.188-5.587,1.872c-1.026,2.061-0.188,4.562,1.873,5.587
			l2.673,1.331c0.515,0.256,0.834,0.921,0.733,1.488c-0.331,1.854-0.508,3.771-0.508,5.735c0,15.908,11.301,28.803,25.239,28.803
			c13.939,0,25.238-12.896,25.238-28.803c0-1.613-0.116-3.197-0.34-4.739c-0.083-0.57,0.25-1.236,0.766-1.492l4.665-2.323
			c2.06-1.025,2.897-3.527,1.872-5.587c-1.026-2.06-3.528-2.899-5.587-1.872L53.541,17.285z M47.03,5.64
			C53.12,6.659,56,6.327,57.285,5.956c0.553-0.161,0.636-0.081,0.216,0.313c-1.594,1.496-5.755,4.688-11.917,4.288
			c-7.596-0.494-12.762,2.105-12.788-3.729c-0.003-0.575,0.485-1.189,1.045-1.317C35.678,5.096,40.049,4.471,47.03,5.64z
			 M7.631,5.956c1.285,0.372,4.165,0.704,10.257-0.316c6.979-1.169,11.351-0.543,13.189-0.128c0.561,0.127,1.048,0.742,1.045,1.317
			c-0.026,5.833-5.192,3.234-12.788,3.729c-6.163,0.4-10.324-2.792-11.917-4.288C6.996,5.875,7.078,5.795,7.631,5.956z
			 M35.561,49.519c-0.575-0.028-1.229,0.357-1.542,0.841c-1.496,2.318-3.276,1.93-3.276,1.93c-5.02-1.031-8.004-5.047-9.213-7.056
			c-0.296-0.492-0.873-1.198-1.306-1.579c-1.785-1.564-2.923-3.071-3.529-3.993c-0.317-0.48-0.226-1.052,0.158-1.251l0.695-0.358
			c0,0,0.31-0.161,0.693-0.361c0.382-0.2,0.916,0.05,1.242,0.523c1.619,2.349,6.958,8.475,18.467,8.214
			c0.575-0.014,1.065,0.424,1.097,0.999l0.056,1.042c0.032,0.573-0.374,1.063-0.906,1.08c-0.324,0.008-0.645,0.012-0.961,0.012
			C36.664,49.561,36.106,49.547,35.561,49.519z M49.378,26.284c-0.515,0.256-1.077,0.911-1.332,1.426
			c-1.482,2.995-4.847,5.087-8.764,5.087c-4.185,0-7.737-2.388-9.039-5.714c-0.209-0.535-0.417-0.535-0.627,0
			c-1.301,3.326-4.855,5.714-9.039,5.714c-4.519,0-8.304-2.786-9.308-6.528c-0.149-0.556-0.619-1.229-1.134-1.487l-6.603-3.289
			c-1.029-0.513-1.449-1.764-0.937-2.794s1.762-1.448,2.794-0.936l5.452,2.714c0.515,0.256,1.129,0.041,1.442-0.441
			c1.654-2.545,4.748-4.258,8.292-4.258c4.185,0,7.738,2.388,9.039,5.713c0.209,0.535,0.417,0.535,0.627,0
			c1.301-3.326,4.854-5.713,9.039-5.713c4.013,0,7.439,2.196,8.862,5.309c0.238,0.523,0.786,0.766,1.302,0.51l8.164-4.067
			c1.03-0.516,2.281-0.094,2.794,0.936s0.094,2.28-0.935,2.793L49.378,26.284z"/>
	</g>
</g>
<g>
</g>
<g>
</g>
<g>
</g>
<g>
</g>
<g>
</g>
<g>
</g>
<g>
</g>
<g>
</g>
<g>
</g>
<g>
</g>
<g>
</g>
<g>
</g>
<g>
</g>
<g>
</g>
<g>
</g>
</svg>
