<svg id="Capa_1" enable-background="new 0 0 512 512" height="512" viewBox="0 0 512 512" width="512" xmlns="http://www.w3.org/2000/svg"><g><g><path d="m446.099 65.901c-42.497-42.497-98.999-65.901-159.099-65.901s-116.602 23.404-159.099 65.901-65.901 98.999-65.901 159.099 23.404 116.602 65.901 159.099 98.999 65.901 159.099 65.901 116.602-23.404 159.099-65.901 65.901-98.999 65.901-159.099-23.404-116.602-65.901-159.099zm35.058 141.045c-11.729-1.065-23.239-3.166-34.422-6.26l3.219-8.845c2.833-7.784-1.18-16.392-8.965-19.226-7.784-2.831-16.392 1.181-19.226 8.966l-3.235 8.889c-16.623-7.532-32.19-17.432-46.268-29.517l6.664-6.664c5.858-5.857 5.858-15.355 0-21.213-5.857-5.857-15.355-5.857-21.213 0l-6.664 6.664c-12.085-14.078-21.985-29.644-29.517-46.267l8.889-3.235c7.785-2.834 11.798-11.441 8.965-19.227-2.833-7.784-11.443-11.798-19.226-8.965l-8.844 3.219c-3.094-11.183-5.194-22.693-6.26-34.422 93.143 8.593 167.51 82.96 176.103 176.103zm-388.314 36.108c11.729 1.066 23.239 3.166 34.422 6.26l-3.219 8.845c-2.833 7.784 1.18 16.392 8.965 19.226 1.694.616 3.425.908 5.129.908 6.126 0 11.879-3.783 14.096-9.874l3.235-8.889c16.623 7.532 32.19 17.432 46.268 29.517l-6.664 6.664c-5.858 5.857-5.858 15.355 0 21.213 2.929 2.929 6.768 4.394 10.606 4.394s7.678-1.465 10.606-4.394l6.664-6.664c12.086 14.078 21.985 29.644 29.517 46.267l-8.889 3.236c-7.785 2.834-11.798 11.441-8.965 19.227 2.217 6.091 7.969 9.873 14.096 9.873 1.704 0 3.436-.292 5.129-.908l8.845-3.219c3.094 11.183 5.194 22.693 6.26 34.422-93.141-8.594-167.508-82.961-176.101-176.104zm206.246 176.56c-1.182-15.431-3.914-30.551-8.124-45.172l9.861-3.589c7.785-2.834 11.798-11.441 8.965-19.227-2.833-7.784-11.441-11.797-19.226-8.965l-9.826 3.577c-9.109-20.666-21.37-39.95-36.523-57.24l7.429-7.429c5.858-5.857 5.858-15.355 0-21.213-5.857-5.857-15.355-5.857-21.213 0l-7.429 7.429c-17.29-15.154-36.575-27.414-57.241-36.524l3.576-9.826c2.833-7.784-1.18-16.392-8.965-19.226-7.783-2.831-16.392 1.182-19.226 8.966l-3.589 9.86c-14.622-4.21-29.742-6.942-45.173-8.124 6.02-97.913 84.612-176.505 182.525-182.525 1.182 15.431 3.914 30.551 8.124 45.172l-9.861 3.589c-7.785 2.834-11.798 11.441-8.965 19.227 2.217 6.091 7.969 9.873 14.096 9.873 1.704 0 3.436-.292 5.129-.908l9.826-3.577c9.109 20.666 21.37 39.95 36.523 57.241l-7.429 7.429c-5.858 5.857-5.858 15.355 0 21.213 2.929 2.929 6.768 4.394 10.606 4.394s7.678-1.465 10.606-4.394l7.429-7.429c17.29 15.154 36.575 27.414 57.241 36.524l-3.576 9.826c-2.833 7.784 1.18 16.392 8.965 19.226 1.694.616 3.425.908 5.129.908 6.126 0 11.879-3.783 14.096-9.874l3.589-9.86c14.622 4.21 29.742 6.942 45.173 8.124-6.016 97.912-84.609 176.504-182.522 182.524z"/></g><g><g><path d="m89.246 507.606c-5.858-5.858-5.858-15.355 0-21.213l40-40c5.858-5.858 15.355-5.858 21.213 0s5.858 15.355 0 21.213l-40 40c-5.858 5.858-15.355 5.858-21.213 0z"/></g><g><path d="m4.393 507.607c-5.858-5.858-5.858-15.355 0-21.213l70-70c5.858-5.858 15.355-5.858 21.213 0s5.858 15.355 0 21.213l-70 70c-5.857 5.857-15.355 5.857-21.213 0z"/></g><g><path d="m4.393 422.754c-5.858-5.858-5.858-15.355 0-21.213l40-40c5.858-5.858 15.355-5.858 21.213 0s5.858 15.355 0 21.213l-40 40c-5.857 5.858-15.355 5.858-21.213 0z"/></g></g></g></svg>